<?xml version="1.0" encoding="utf-8"?>
<!-- Generator: Adobe Illustrator 18.0.0, SVG Export Plug-In . SVG Version: 6.00 Build 0)  -->
<!DOCTYPE svg PUBLIC "-//W3C//DTD SVG 1.1//EN" "http://www.w3.org/Graphics/SVG/1.1/DTD/svg11.dtd">
<svg version="1.1" id="Layer_1" xmlns="http://www.w3.org/2000/svg" xmlns:xlink="http://www.w3.org/1999/xlink" x="0px" y="0px"
	 width="38px" height="38px" viewBox="0 0 38 38" enable-background="new 0 0 38 38" xml:space="preserve">
<g>
	<path fill-rule="evenodd" clip-rule="evenodd" fill="#FFFFFF" d="M38,19C38,8.5,29.5,0,19,0C8.5,0,0,8.5,0,19c0,10.5,8.5,19,19,19
		C29.5,38,38,29.5,38,19L38,19L38,19z M37.1,19c0,10-8.1,18.1-18.1,18.1C9,37.1,0.9,29,0.9,19C0.9,9,9,0.9,19,0.9
		C29,0.9,37.1,9,37.1,19L37.1,19L37.1,19z M36,19c0-6-3.1-12.2-9.6-14.2c-1.4-0.4-2.5-0.7-3.8-0.7c-3,0-3.2,1.7-4.6,1.7
		c-0.8,0-1.3-0.6-1.3-1.3c0-1.2,1.4-2.2,3.7-2.2c2.1,0,3.7,0.5,4,0.7l0.1-0.1C23.8,2.7,21.8,2,19,2C12.9,2,6.8,5.1,4.8,11.7
		c-0.4,1.4-0.7,2.5-0.7,3.8c0,3.1,1.7,3.2,1.7,4.6c0,0.7-0.6,1.3-1.3,1.3c-1.2,0-2.2-1.4-2.2-3.7c0-2.1,0.5-3.7,0.6-4l-0.1-0.1
		C2.7,14.3,2,16.2,2,19c0,6.1,3.1,12.3,9.6,14.3c1.4,0.4,2.5,0.7,3.8,0.7c3.1,0,3.2-1.8,4.6-1.8c0.7,0,1.3,0.6,1.3,1.3
		c0,1.2-1.4,2.1-3.7,2.1c-2.1,0-3.8-0.5-4.1-0.6l-0.1,0.2c0.6,0.3,2.6,0.8,5.4,0.8c6.1,0,12.3-3.1,14.2-9.6c0.4-1.3,0.7-2.5,0.7-3.8
		c0-3.1-1.7-3.2-1.7-4.6c0-0.8,0.5-1.3,1.3-1.3c1.2,0,2.2,1.4,2.2,3.7c0,2.1-0.5,3.7-0.6,4.1l0.2,0.1C35.3,23.8,36,21.8,36,19L36,19
		L36,19z M29.6,24.1c0,2.4-2,4.8-5.1,4.8c-3.6,0-5.5-3.1-5.5-5.8c0-3.8,2.6-5.5,3.7-6.1c-0.2-0.2-0.4-0.4-0.5-0.6
		c-1.3,0.9-2.4,1.7-4.8,3.1c-0.1,1.7-0.3,3.5-0.7,4.8c-0.9,2.7-2.7,4.6-5.2,4.6c-2,0-3-1.5-3-3.1c0-1.2,0.7-2.6,1.9-3.7
		c1.5-1.4,3.2-2.2,5.5-3.4c0.1-0.3,0.1-0.6,0.2-1c-0.6,0.5-1.4,0.7-2.1,0.7c-1.1,0-2-0.9-2.2-1.9c-1.5-0.1-2.6-1.2-2.6-2.8
		c0-1.2,0.5-2.3,1.3-2.3c0.3,0,0.4,0.3,0.4,0.5c0,0.2-0.3,0.9-0.3,1.6c0,0.7,0.3,1.6,1.2,1.6c0-2.7,2-6.3,4.4-6.3
		c1.6,0,1.8,1.2,1.8,1.7c0,2.5-2.5,5.2-4.5,5.9c0.1,0.2,0.3,0.8,0.9,0.8c0.8,0,1.7-0.7,2.2-1.3c0.2-1.1,1-2.7,2.1-2.7
		c0.4,0,0.6,0.3,0.6,0.7c0,0.8-0.8,1.8-1.5,2.5c-0.1,0.5-0.1,1.1-0.1,1.6c1.8-1.1,2.8-1.7,4.2-2.7c-0.1-0.4-0.1-0.8-0.1-1.2
		c0-2.5,1.6-5.2,3.8-5.2c1.2,0,1.8,0.9,1.8,1.8c0,1.8-1.5,3.4-3.7,5c0.2,0.4,0.4,0.8,0.8,1c0.1-0.1,0.7-0.2,1.3-0.2
		c0.6,0,1.5,0.2,1.5,0.8c0,0.7-1,0.9-1.8,0.9c-0.4,0.1-1.1-0.1-1.1-0.1c-1.2,0.3-3.4,1.6-3.4,5c0,2.3,1.4,4.4,3.6,4.4
		c1.7,0,3-1.3,3.1-3.2c0-1.3-0.5-2.6-1.8-2.6c-0.6,0-1.2,0.5-1.2,1.2c-0.1,1.1,0.7,1.2,0.7,1.8c0,0.5-0.4,0.7-0.7,0.7
		c-1.1,0-1.9-1.1-1.9-2.4c0-1.6,1.4-2.9,3.2-2.9C28.4,19.9,29.6,21.9,29.6,24.1L29.6,24.1L29.6,24.1z M25.7,10.8
		c0-0.3-0.1-0.6-0.4-0.6c-0.8,0-2,1.7-2,3.8C24.8,12.7,25.7,11.5,25.7,10.8L25.7,10.8L25.7,10.8z M16.4,10.6c0-0.3-0.1-0.4-0.4-0.4
		c-1.1,0-2.7,2.9-2.7,4.6C15,13.9,16.4,11.7,16.4,10.6L16.4,10.6L16.4,10.6z M15.7,20.4c-2.4,1.2-5.4,3.2-5.4,5.5
		c0,0.8,0.4,1.4,1.2,1.4C13.9,27.3,15.3,23.6,15.7,20.4L15.7,20.4L15.7,20.4z"/>
</g>
</svg>
