<svg version="1.1" id="energy-everywhere" xmlns="http://www.w3.org/2000/svg" xmlns:xlink="http://www.w3.org/1999/xlink" x="0px" y="0px"
	width="90px" height="62px" viewBox="0 0 90 62" enable-background="new 0 0 90 62" xml:space="preserve">
	<g>
		<line fill="none" stroke="#0960AC" stroke-width="0.6665" stroke-miterlimit="10" x1="27.1" y1="10.9" x2="27.1" y2="50"/>
		<line fill="none" stroke="#0960AC" stroke-width="0.6665" stroke-miterlimit="10" x1="35.4" y1="7.9" x2="35.4" y2="55.7"/>
		<line fill="none" stroke="#0960AC" stroke-width="0.6665" stroke-miterlimit="10" x1="43.8" y1="1.8" x2="43.8" y2="61.6"/>
		<line fill="none" stroke="#0960AC" stroke-width="0.6665" stroke-miterlimit="10" x1="51.4" y1="4.4" x2="51.4" y2="55.6"/>
		<line fill="none" stroke="#0960AC" stroke-width="0.6665" stroke-miterlimit="10" x1="59.7" y1="10.9" x2="59.7" y2="50"/>
		<line fill="none" stroke="#0960AC" stroke-width="0.6665" stroke-miterlimit="10" x1="68.1" y1="13.5" x2="68.1" y2="50"/>
		<line fill="none" stroke="#0960AC" stroke-width="0.6665" stroke-miterlimit="10" x1="19.1" y1="19.2" x2="75.7" y2="19.2"/>
		<line fill="none" stroke="#0960AC" stroke-width="0.6665" stroke-miterlimit="10" x1="7.3" y1="26.9" x2="85.2" y2="26.9"/>
		<line fill="none" stroke="#0960AC" stroke-width="0.6665" stroke-miterlimit="10" x1="15.3" y1="34.7" x2="82.6" y2="34.7"/>
		<line fill="none" stroke="#0960AC" stroke-width="0.6665" stroke-miterlimit="10" x1="19.1" y1="42.4" x2="75.7" y2="42.4"/>
		<circle fill="#F15D5F" cx="59.9" cy="50" r="5.2"/>
		<circle fill="#F15D5F" cx="6.1" cy="27.1" r="5.6"/>
		<circle fill="#F15D5F" cx="43.6" cy="26.9" r="6.1"/>
		<circle fill="#F15D5F" cx="82.6" cy="7.4" r="6.9"/>
		<g class="bolts">
			<polygon fill="#FFFFFF" points="6.8,29.3 7.5,27.1 7.6,26.7 7.1,26.7 5.4,26.6 6.4,23.6 5.3,23.3 4.6,26.9 4.5,27.3 4.9,27.3 6.7,27.4 6.3,29.3 5.4,29.2 6.4,30.7 7.7,29.4 	"/>
			<polygon fill="#FFFFFF" points="44.5,29.7 45.3,27 45.4,26.5 44.9,26.5 42.8,26.4 43.9,22.7 42.7,22.4 41.7,26.7 41.6,27.3 42.2,27.3 44.3,27.4 43.9,29.6 42.7,29.5 44,31.4 45.6,29.8 	"/>
			<polygon fill="#FFFFFF" points="83.5,10.4 84.3,7.7 84.5,7.2 83.9,7.2 81.8,7.1 83,3.4 81.7,3.1 80.8,7.4 80.7,8 81.2,8 83.4,8 83,10.3 81.8,10.2 83,12.1 84.7,10.5 	"/>
			<polygon fill="#FFFFFF" points="60.7,52.1 61.3,50.1 61.4,49.8 61,49.7 59.4,49.7 60.3,47 59.3,46.7 58.7,49.9 58.6,50.3 59,50.3 60.6,50.4 60.2,52 59.4,52 60.3,53.4 61.5,52.2 	"/>
		</g>
		<circle fill="#FFFFFF" stroke="#F15D5F" stroke-width="0.6665" stroke-miterlimit="10" cx="68" cy="26.9" r="2"/>
		<circle fill="#FFFFFF" stroke="#F15D5F" stroke-width="0.6665" stroke-miterlimit="10" cx="26.9" cy="34.5" r="2"/>
		<circle fill="#FFFFFF" stroke="#F15D5F" stroke-width="0.6665" stroke-miterlimit="10" cx="43.6" cy="42.4" r="2"/>
	</g>
</svg>
