<svg version="1.1" id="mapped-minds" xmlns="http://www.w3.org/2000/svg" xmlns:xlink="http://www.w3.org/1999/xlink" x="0px"
	y="0px" width="69px" height="56px" viewBox="0 0 69 56" enable-background="new 0 0 69 56" xml:space="preserve">
	<g>
		<line fill="none" stroke="#4489C8" stroke-width="0.6665" stroke-miterlimit="10" x1="4.8" y1="15.5" x2="58.4" y2="10.5"/>
		<line fill="none" stroke="#4489C8" stroke-width="0.6665" stroke-miterlimit="10" x1="2.4" y1="28.5" x2="65" y2="22.8"/>
		<line fill="none" stroke="#4489C8" stroke-width="0.6665" stroke-miterlimit="10" x1="4.8" y1="33.8" x2="66.6" y2="28.1"/>
		<line fill="none" stroke="#4489C8" stroke-width="0.6665" stroke-miterlimit="10" x1="19.9" y1="41.6" x2="65" y2="37.3"/>
		<line fill="none" stroke="#4489C8" stroke-width="0.6665" stroke-miterlimit="10" x1="8.8" y1="11.6" x2="54.4" y2="7.3"/>
		<line fill="none" stroke="#4489C8" stroke-width="0.6665" stroke-miterlimit="10" x1="12.8" y1="8.4" x2="50.4" y2="4.9"/>
		<line fill="none" stroke="#4489C8" stroke-width="0.6665" stroke-miterlimit="10" x1="32.5" y1="3.3" x2="33.2" y2="44.8"/>
		<line fill="none" stroke="#4489C8" stroke-width="0.6665" stroke-miterlimit="10" x1="37.9" y1="3.3" x2="38.7" y2="44.8"/>
		<line fill="none" stroke="#4489C8" stroke-width="0.6665" stroke-miterlimit="10" x1="43.3" y1="3.3" x2="44.1" y2="40.6"/>
		<line fill="none" stroke="#4489C8" stroke-width="0.6665" stroke-miterlimit="10" x1="48.7" y1="3.3" x2="49.5" y2="40.1"/>
		<line fill="none" stroke="#4489C8" stroke-width="0.6665" stroke-miterlimit="10" x1="54.1" y1="7.5" x2="54.9" y2="39.9"/>
		<line fill="none" stroke="#4489C8" stroke-width="0.6665" stroke-miterlimit="10" x1="59.6" y1="12.4" x2="60.3" y2="40.4"/>
		<polyline fill="none" stroke="#4489C8" stroke-width="0.6665" stroke-miterlimit="10" points="3,22.7 17.9,18.7 61.5,14.4 	"/>
	</g>
	<path fill="#D42027" d="M16.9,22.7l-7.5,11L9.8,35L17,25l0.3,11h-0.2h-0.2l0.1,1.3h0.1v0.3h0.2h1.1h0.2v-0.3c0,0,0,0,0,0l7.7-0.5 l0.2,7.6h1.3l-0.1-7.8L67.2,34l-0.1-1.3l-39.6,2.5l-0.2-12.7l34.4-3.3l-0.1-1.3l-34.4,3.4l-0.1-17h-1.3l0.1,17l-7.7,0.9L17.6,6.1 h-1.3l0.4,13.4L16.9,22.7z M18.6,36C18.6,36,18.6,35.9,18.6,36l-0.2-12.5l7.6-0.8l0.1,12.7L18.6,36z"/>
	<path class="brain-outline" fill="#0960AC" d="M45.1,53.4c-1.7-1.6-3.4-3.3-4.3-5.8c1.8,1.4,4.6,2.1,7.9,2.1c1.7,0,3.6-0.2,5.5-0.6c4-0.9,6.5-2.3,7.6-4.4 c0.7-1.4,0.6-2.9,0.3-4.2c1.7-0.4,3.3-1.2,4.5-2.7c0.8-1,0.8-2.3,0.4-3.4c0.9-0.9,1.4-2.1,1.4-3.2c0-3-0.8-6.8-2-10.3 c-0.4-1.1-1.5-2.3-2.6-3.1c0.1-1.3-0.1-2.8-0.9-4.1C60.6,10.1,57.6,7.1,54,5c-1-0.6-2.3-0.9-3.4-0.9C50,3.2,48.9,2.5,48,2.2 c-1.7-0.6-3.5-1-5.4-1.2C41.8,0.9,41,1.1,40,1.6c-0.7-0.5-1.6-0.9-2.6-0.9c-2.9,0-5.8,0.2-8.5,0.6c-1.2,0.2-2.2,0.8-3,1.5 c-0.8-0.2-1.6-0.3-2.1-0.3c-0.4,0-0.8,0.1-1.2,0.1c-1.6,0.5-3.2,1-4.7,1.7c-1.1,0.5-2.2,1.5-2.9,2.6c-1.3,0-2.9,0.3-4,1.1 c-4.1,2.9-7.2,6.5-9,10.4c-0.4,0.9-0.5,2.1-0.3,3.2c-0.7,0.9-1.3,2.1-1.3,3.2c0,4.1,1.5,7.7,4.3,10.5c0.9,0.9,2.2,1.3,3.5,1 c0.5,1.3,1.4,2.2,2.4,2.5c2,0.6,4,0.8,6,0.6c0.6,2.6,3.2,5,5.9,6.5c0.8,0.4,2,0.6,3,0.6c1,0.8,2.4,1.1,3.3,1.1 c2.7,0,6.1-1.5,8.6-2.7c0.6,5.3,3.6,8.4,6,10.7 M60.3,44c-0.8,1.6-3,2.7-6.4,3.5c-5.6,1.2-10.7,0.5-12.7-1.9 c-0.6-0.6-0.8-1.4-0.8-2.3c1.9-1,4-1.9,6.4-2.5c0.9-0.2,1.9-0.3,3.2-0.3s2.7,0.1,4,0.2c1.4,0.1,2.9,0.2,4.3,0.2c0.7,0,1.4,0,2.2-0.1 C60.7,41.9,60.8,43,60.3,44z M59.4,38.1c-1.3,0-2.7-0.1-4.2-0.2c-1.5-0.1-3-0.2-4.5-0.2c-1.7,0-3.1,0.1-4.3,0.5 c-3.7,0.9-6.7,2.5-9.4,3.9c-3,1.6-5.6,2.9-8.3,2.9c-0.8,0-1-0.5-1.5-0.8c-1-0.5-2.4-0.1-3.4-0.6c-1.6-0.9-3.6-2.2-4.2-4.1 c-0.3-0.7-0.1-1.6-0.6-2.2c-1.8-2.5-6,0.3-8.2-1.3c-0.8-0.6-0.2-2-1.2-2.6C9.1,33,8.4,33,7.8,33c-0.4,0-1.3,0.4-1.6,0.3 c-0.7-0.1-1.4-1.3-1.7-1.8c-1.2-1.7-1.9-3.8-2-5.8c0-1.1,0.4-1.5,0.8-2.5c0.5-1.1,0-2.5,0.4-3.5c1.6-3.5,4.5-6.8,8.3-9.5 c1.8-1.3,4,0.1,5.4-1.9C18.8,6.2,20.6,5.7,23,5c0,0,0.1,0,0.2,0c0.8,0,1.5,0.4,2.3,0.4c1.5,0,2.2-1.5,3.5-1.7 c2.5-0.4,5.2-0.7,7.7-0.6c1.6,0.1,3,1.2,4.7,0.7c2-0.5,4.6,0,6.4,0.9c1.3,0.6,2.2,1.5,3.6,1.9c1.4,0.4,2.4,0.9,3.5,1.8 c2.5,1.9,4.7,4.2,6.4,6.9c0.8,1.2,0,2.6,0.6,3.8c0.6,1.2,2.3,1.7,2.7,2.9c0.9,2.5,1.6,5.1,1.8,7.8c0.1,0.6,0.2,1.3,0.1,1.9 C66.1,33,65,33.4,65,35c0,0.9,0.4,1.3-0.4,1.9C63.4,38.1,61,38.1,59.4,38.1z"/>
	<g class="mind-nodes">
		<circle fill="#D42027" cx="17.5" cy="22.8" r="3.2"/>
		<circle fill="#D42027" cx="26.6" cy="22" r="2.4"/>
		<circle fill="#D42027" cx="26.6" cy="36.2" r="2.4"/>
		<circle fill="#D42027" cx="26.6" cy="22" r="2.4"/>
	</g>
</svg>
