<?xml version="1.0" encoding="utf-8"?>
<!-- Generator: Adobe Illustrator 18.0.0, SVG Export Plug-In . SVG Version: 6.00 Build 0)  -->
<!DOCTYPE svg PUBLIC "-//W3C//DTD SVG 1.1//EN" "http://www.w3.org/Graphics/SVG/1.1/DTD/svg11.dtd">
<svg version="1.1" id="Layer_1" xmlns="http://www.w3.org/2000/svg" xmlns:xlink="http://www.w3.org/1999/xlink" x="0px" y="0px"
	 width="220px" height="93px" viewBox="0 0 220 93" enable-background="new 0 0 220 93" xml:space="preserve">
<g>
	<g opacity="0.6">
		<g opacity="0.8">
			<path fill="#FFFFFF" d="M9.4,60.6c0,2.6-2.1,4.7-4.7,4.7c-2.6,0-4.7-2.1-4.7-4.7H9.4z"/>
			<path fill="#FFFFFF" d="M28,60.6c0,2.6-2.1,4.7-4.7,4.7c-2.6,0-4.7-2.1-4.7-4.7H28z"/>
			<path fill="#FFFFFF" d="M37.2,60.6c0,2.6-2.1,4.7-4.7,4.7c-2.6,0-4.7-2.1-4.7-4.7H37.2z"/>
			<path fill="#FFFFFF" d="M18.7,60.6c0,2.6-2.1,4.7-4.7,4.7c-2.6,0-4.7-2.1-4.7-4.7H18.7z"/>
		</g>
	</g>
	<g opacity="0.6">
		<g opacity="0.8">
			<path fill="#FFFFFF" d="M206.2,0.1c0,1.9-1.6,3.5-3.5,3.5c-1.9,0-3.5-1.6-3.5-3.5H206.2z"/>
			<path fill="#FFFFFF" d="M213.1,0.1c0,1.9-1.6,3.5-3.5,3.5c-1.9,0-3.5-1.6-3.5-3.5H213.1z"/>
			<path fill="#FFFFFF" d="M199.2,0.1c0,1.9-1.6,3.5-3.5,3.5c-1.9,0-3.5-1.6-3.5-3.5H199.2z"/>
		</g>
		<g opacity="0.8">
			<path fill="#FFFFFF" d="M220,0.1c0,1.9-1.6,3.5-3.5,3.5c-1.9,0-3.5-1.6-3.5-3.5H220z"/>
		</g>
	</g>
	<g opacity="0.6">
		<g opacity="0.8">
			<path fill="#FFFFFF" d="M184.6,14.9c0,2.1-1.7,3.8-3.8,3.8c-2.1,0-3.8-1.7-3.8-3.8H184.6z"/>
			<path fill="#FFFFFF" d="M192.1,14.9c0,2.1-1.7,3.8-3.8,3.8c-2.1,0-3.8-1.7-3.8-3.8H192.1z"/>
		</g>
	</g>
	<g opacity="0.6">
		<g opacity="0.8">
			<path fill="#FFFFFF" d="M170.3,87.8c0,2.8-2.3,5.1-5.1,5.1c-2.8,0-5.1-2.3-5.1-5.1H170.3z"/>
		</g>
		<g opacity="0.8">
			<path fill="#FFFFFF" d="M180.3,87.8c0,2.8-2.3,5.1-5.1,5.1c-2.8,0-5.1-2.3-5.1-5.1H180.3z"/>
		</g>
	</g>
	<g opacity="0.6">
		<g opacity="0.8">
			<path fill="#FFFFFF" d="M171,60.3c0,2.6-2.1,4.7-4.7,4.7c-2.6,0-4.7-2.1-4.7-4.7H171z"/>
			<path fill="#FFFFFF" d="M189.6,60.3c0,2.6-2.1,4.7-4.7,4.7c-2.6,0-4.7-2.1-4.7-4.7H189.6z"/>
			<path fill="#FFFFFF" d="M180.3,60.3c0,2.6-2.1,4.7-4.7,4.7c-2.6,0-4.7-2.1-4.7-4.7H180.3z"/>
		</g>
	</g>
	<g opacity="0.6">
		<g opacity="0.8">
			<path fill="#FFFFFF" d="M125.1,33.2c0,2.7-2.2,4.9-4.9,4.9c-2.7,0-4.9-2.2-4.9-4.9H125.1z"/>
		</g>
		<g opacity="0.8">
			<path fill="#FFFFFF" d="M134.6,33.2c0,2.7-2.2,4.9-4.9,4.9c-2.7,0-4.9-2.2-4.9-4.9H134.6z"/>
		</g>
	</g>
</g>
</svg>
