<?xml version="1.0" encoding="utf-8"?>
<!-- Generator: Adobe Illustrator 18.0.0, SVG Export Plug-In . SVG Version: 6.00 Build 0)  -->
<!DOCTYPE svg PUBLIC "-//W3C//DTD SVG 1.1//EN" "http://www.w3.org/Graphics/SVG/1.1/DTD/svg11.dtd">
<svg version="1.1" id="Layer_1" xmlns="http://www.w3.org/2000/svg" xmlns:xlink="http://www.w3.org/1999/xlink" x="0px" y="0px"
	 width="33px" height="34px" viewBox="0 0 33 34" enable-background="new 0 0 33 34" xml:space="preserve">
<g>
	<linearGradient id="SVGID_1_" gradientUnits="userSpaceOnUse" x1="0.4761" y1="17" x2="32.5239" y2="17">
		<stop  offset="0" style="stop-color:#4489C8"/>
		<stop  offset="1" style="stop-color:#0960AC"/>
	</linearGradient>
	<path fill="url(#SVGID_1_)" d="M31.3,2.5c0.8-1.2,1.3-2.3,1.2-2.4c-0.2-0.1-1,0.7-2,1.8l-10,11.9c-0.2,0.3-0.4,0.6-0.6,0.8
		c-0.4-0.2-0.8-0.3-1.3-0.4L3.2,12.7c-1.4-0.2-2.6-0.1-2.7,0.1c0,0.2,1.1,0.6,2.5,0.9L18.2,17c0.5,0.1,1,0.1,1.5,0.1
		c0.1,0.3,0.2,0.6,0.3,0.8l7.2,13.8c0.7,1.3,1.4,2.3,1.5,2.2c0.2-0.1-0.1-1.2-0.6-2.6l-5.6-14.5c-0.1-0.2-0.2-0.5-0.3-0.7
		c0.2-0.2,0.4-0.4,0.5-0.7L31.3,2.5z"/>
	<path fill="#F15D5F" d="M22.1,15.9c0-0.8-0.6-1.4-1.4-1.4c-0.8,0-1.4,0.6-1.4,1.4c0,0.8,0.6,1.4,1.4,1.4
		C21.5,17.3,22.1,16.7,22.1,15.9z"/>
</g>
</svg>
