<?xml version="1.0" encoding="utf-8"?>
<!-- Generator: Adobe Illustrator 18.0.0, SVG Export Plug-In . SVG Version: 6.00 Build 0)  -->
<!DOCTYPE svg PUBLIC "-//W3C//DTD SVG 1.1//EN" "http://www.w3.org/Graphics/SVG/1.1/DTD/svg11.dtd">
<svg version="1.1" id="Layer_1" xmlns="http://www.w3.org/2000/svg" xmlns:xlink="http://www.w3.org/1999/xlink" x="0px" y="0px"
	 width="33px" height="37px" viewBox="0 0 33 37" enable-background="new 0 0 33 37" xml:space="preserve">
<g>
	<linearGradient id="SVGID_1_" gradientUnits="userSpaceOnUse" x1="0.3598" y1="18.5" x2="32.6402" y2="18.5">
		<stop  offset="0" style="stop-color:#4489C8"/>
		<stop  offset="1" style="stop-color:#0960AC"/>
	</linearGradient>
	<path fill="url(#SVGID_1_)" d="M29.9,20.9l-16.2-2.3c-0.4-0.1-0.7-0.1-1.1,0c-0.1-0.4-0.2-0.9-0.4-1.4L5.1,2.4
		C4.5,1.1,3.8,0,3.6,0.1C3.4,0.1,3.7,1.4,4.2,2.8l5.5,15.4c0.2,0.5,0.5,1,0.7,1.3c-0.2,0.2-0.4,0.5-0.6,0.8L1.5,34.3
		c-0.8,1.3-1.3,2.5-1.1,2.6c0.2,0.1,1-0.8,2-2l9.8-13c0.2-0.2,0.3-0.4,0.4-0.7c0.3,0.1,0.6,0.1,0.9,0.1l16.3,0.6
		c1.5,0,2.8-0.1,2.8-0.3C32.7,21.4,31.4,21.1,29.9,20.9z"/>
	<circle fill="#F15D5F" cx="12" cy="19.8" r="1.5"/>
</g>
</svg>
