<?xml version="1.0" encoding="utf-8"?>
<!-- Generator: Adobe Illustrator 18.0.0, SVG Export Plug-In . SVG Version: 6.00 Build 0)  -->
<!DOCTYPE svg PUBLIC "-//W3C//DTD SVG 1.1//EN" "http://www.w3.org/Graphics/SVG/1.1/DTD/svg11.dtd">
<svg version="1.1" id="Layer_1" xmlns="http://www.w3.org/2000/svg" xmlns:xlink="http://www.w3.org/1999/xlink" x="0px" y="0px"
	 width="23px" height="26px" viewBox="0 0 23 26" enable-background="new 0 0 23 26" xml:space="preserve">
<g>
	<linearGradient id="SVGID_1_" gradientUnits="userSpaceOnUse" x1="7.459495e-02" y1="13" x2="22.9254" y2="13">
		<stop  offset="0" style="stop-color:#4489C8"/>
		<stop  offset="1" style="stop-color:#0960AC"/>
	</linearGradient>
	<path fill="url(#SVGID_1_)" d="M20.8,16l-10.4-2.3c-0.4-0.1-0.7-0.1-1-0.1c0-0.4-0.1-0.8-0.3-1.3l-4-9.9c-0.4-1.1-0.9-2-1-1.9
		c-0.1,0,0,1,0.3,2.2l2.8,10.3c0.1,0.5,0.3,0.9,0.6,1.2c-0.2,0.2-0.4,0.4-0.6,0.7l-6.1,8.8c-0.7,1-1.2,1.8-1,1.9
		c0.1,0.1,0.8-0.6,1.6-1.5l7-8c0.2-0.2,0.4-0.4,0.5-0.7c0.3,0.1,0.6,0.2,0.9,0.2l10.6,1.1c1.2,0.1,2.2,0.1,2.2,0
		C22.9,16.5,22,16.2,20.8,16z"/>
	<circle fill="#F15D5F" cx="8.9" cy="14.3" r="0.9"/>
</g>
</svg>
