<svg version="1.1" id="brilliant-factories" xmlns="http://www.w3.org/2000/svg" xmlns:xlink="http://www.w3.org/1999/xlink" x="034" y="032" width="68px" height="64px" viewBox="0 0 68 64" enable-background="new 0 0 68 64" xml:space="preserve">
	<g>
		<path fill="#FFFFFF" stroke="#7866AD" stroke-width="1.7773" stroke-miterlimit="10" d="M66.5,31.2c0-5-3.8-9.1-8.6-9.7 c0.3-1,0.5-2.1,0.5-3.2c0-5.4-4.4-9.7-9.7-9.7c-0.9,0-1.7,0.1-2.5,0.3c-1.9-4.5-6.3-7.6-11.5-7.6c-4.8,0-9,2.7-11.1,6.8 c-1.3-0.6-2.7-1-4.2-1c-5.4,0-9.7,4.4-9.7,9.7c0,1.3,0.2,2.5,0.7,3.6c-5,0.4-8.9,4.6-8.9,9.7c0,4.8,3.4,8.7,7.9,9.6 c-1.7,1.8-2.8,4.2-2.8,6.8c0,5.4,4.4,9.7,9.7,9.7c2.3,0,4.5-0.8,6.1-2.2c1.6,4.9,6.2,8.5,11.7,8.5c4.9,0,9.1-2.9,11.1-7 c1.2,0.6,2.6,0.9,4.1,0.9c5.4,0,9.7-4.4,9.7-9.7c0-2.2-0.7-4.2-2-5.9C62.3,40.7,66.5,36.5,66.5,31.2z"/>
		<g>
			<rect x="19" y="14.1" fill="#0960AC" width="30" height="35.5"/>
			
			<rect x="20.2" y="15.4" fill="#FFFFFF" stroke="#0960AC" stroke-width="0.6665" stroke-miterlimit="10" width="27.5" height="33.2"/>
			<line fill="none" stroke="#4489C8" stroke-width="0.6665" stroke-miterlimit="10" x1="27.1" y1="15.5" x2="27.1" y2="48.3"/>
			<line fill="none" stroke="#4489C8" stroke-width="0.6665" stroke-miterlimit="10" x1="34.2" y1="15.5" x2="34.2" y2="48.3"/>
			<line fill="none" stroke="#4489C8" stroke-width="0.6665" stroke-miterlimit="10" x1="41.3" y1="15.5" x2="41.3" y2="48.3"/>
			<line fill="none" stroke="#4489C8" stroke-width="0.6665" stroke-miterlimit="10" x1="20.4" y1="22.3" x2="47.7" y2="22.3"/>
			<line fill="none" stroke="#4489C8" stroke-width="0.6665" stroke-miterlimit="10" x1="20.4" y1="28.9" x2="47.7" y2="28.9"/>
			<line fill="none" stroke="#4489C8" stroke-width="0.6665" stroke-miterlimit="10" x1="20.4" y1="35.5" x2="47.7" y2="35.5"/>
			<line fill="none" stroke="#4489C8" stroke-width="0.6665" stroke-miterlimit="10" x1="20.4" y1="42" x2="47.7" y2="42"/>
			<rect x="18.8" y="13.7" fill="#0960AC" width="30.4" height="36.6"/>
			
			<rect x="20.2" y="15.4" fill="#FFFFFF" stroke="#0960AC" stroke-width="0.6665" stroke-miterlimit="10" width="27.5" height="33.2"/>
			<line fill="none" stroke="#4489C8" stroke-width="0.6665" stroke-miterlimit="10" x1="27.1" y1="15.3" x2="27.1" y2="48.4"/>
			<line fill="none" stroke="#4489C8" stroke-width="0.6665" stroke-miterlimit="10" x1="34.2" y1="15.3" x2="34.2" y2="48.4"/>
			<line fill="none" stroke="#4489C8" stroke-width="0.6665" stroke-miterlimit="10" x1="41.3" y1="15.3" x2="41.3" y2="48.4"/>
			<line fill="none" stroke="#4489C8" stroke-width="0.6665" stroke-miterlimit="10" x1="20.4" y1="22.3" x2="47.7" y2="22.3"/>
			<line fill="none" stroke="#4489C8" stroke-width="0.6665" stroke-miterlimit="10" x1="20.4" y1="28.9" x2="47.7" y2="28.9"/>
			<line fill="none" stroke="#4489C8" stroke-width="0.6665" stroke-miterlimit="10" x1="20.4" y1="35.5" x2="47.7" y2="35.5"/>
			<line fill="none" stroke="#4489C8" stroke-width="0.6665" stroke-miterlimit="10" x1="20.4" y1="42" x2="47.7" y2="42"/>
		</g>
		<path fill="#4D4E92" d="M35.3,26.5L33,26.6l-0.3,18.8h2.6C35.3,45.4,35.3,26.6,35.3,26.5z"/>
		<path class="fins" fill="#4D4E92" d="M40.8,28.3l-5.4-3.4c0,0,0,0,0-0.1L35,18.4c0-0.9-0.1-1.6-0.8-1.6c-0.6,0-0.7,0.7-0.8,1.6l-0.3,6.5 c0,0,0,0,0,0.1c-0.1,0-0.2,0.1-0.2,0.1l-5.5,3.2c-0.8,0.5-1.4,0.9-1.1,1.4c0.1,0.2,0.3,0.3,0.5,0.3c0.3,0,0.9-0.2,1.2-0.4l6.2-2.8 l5.9,2.8c0.4,0.2,0.9,0.4,1.2,0.4c0.2,0,0.4-0.1,0.5-0.3C42.1,29.2,41.5,28.8,40.8,28.3z"/>
	</g>
</svg>
