<?xml version="1.0" encoding="utf-8"?>
<!-- Generator: Adobe Illustrator 18.0.0, SVG Export Plug-In . SVG Version: 6.00 Build 0)  -->
<!DOCTYPE svg PUBLIC "-//W3C//DTD SVG 1.1//EN" "http://www.w3.org/Graphics/SVG/1.1/DTD/svg11.dtd">
<svg version="1.1" id="Layer_1" xmlns="http://www.w3.org/2000/svg" xmlns:xlink="http://www.w3.org/1999/xlink" x="0px" y="0px"
	 width="85px" height="74px" viewBox="0 0 85 74" enable-background="new 0 0 85 74" xml:space="preserve">
<g>
	<g>
		<g>
			
				<polyline fill="none" stroke="#0AA54A" stroke-width="0.8887" stroke-linejoin="round" stroke-dasharray="1.7773,1.7773" points="
				0,59 20.9,48.7 6.3,46 			"/>
			<g>
				<polygon fill="#0AA54A" points="9.8,42.9 10.3,43.7 6.6,46.1 9.2,49.6 8.5,50.1 5.3,45.8 				"/>
			</g>
		</g>
	</g>
	<g>
		<g>
			
				<polyline fill="none" stroke="#0AA54A" stroke-width="0.8887" stroke-linejoin="round" stroke-dasharray="1.7773,1.7773" points="
				32.5,0.1 40.3,22 44.7,7.8 			"/>
			<g>
				<polygon fill="#0AA54A" points="47.3,11.7 46.5,12.1 44.6,8.2 40.8,10.3 40.4,9.6 45,6.9 				"/>
			</g>
		</g>
	</g>
	<g>
		<g>
			
				<polyline fill="none" stroke="#0AA54A" stroke-width="0.8887" stroke-linejoin="round" stroke-dasharray="1.7773,1.7773" points="
				85,67.4 62.9,60.2 71.4,72.3 			"/>
			<g>
				<polygon fill="#0AA54A" points="66.8,72 67,71.1 71.2,72 71.8,67.7 72.7,67.8 72,73.1 				"/>
			</g>
		</g>
	</g>
	<g>
		<path fill="#0960AC" stroke="#0960AC" stroke-width="0.8887" stroke-miterlimit="10" d="M39.3,70.3c-1.3-0.2-3-0.7-4.5-1.3
			c0-0.1,0-0.2,0-0.3c0.5-1.9,0-4-1.4-5.8c-1.8-2.3-4.7-3.8-7.3-3.8c-1.1,0-2.1,0.3-2.9,0.7C23.2,59.9,23.1,60,23,60
			c-0.8-1.2-1.8-2.8-2.3-4c0.1-0.1,0.2-0.1,0.3-0.2c2.5-1.5,4-4.7,3.5-8c-0.4-3.2-2.5-5.7-5.4-6.4c-0.1,0-0.3-0.1-0.4-0.2
			c0.3-1.3,0.7-3.2,1.2-4.5c0.2,0,0.3,0,0.5,0.1c0.4,0.1,0.9,0.2,1.4,0.2c3.1,0,5.6-2.6,6.9-4.8c1.5-2.5,1.7-5.1,0.6-7
			c-0.1-0.1-0.1-0.2-0.1-0.4c1.2-0.8,2.8-1.7,4-2.3c0.1,0.1,0.1,0.2,0.2,0.3c1.1,1.9,3.5,3,6.4,3c3.3,0,7.1-1.5,8-4.9
			c0-0.1,0.1-0.2,0.1-0.3c1.6,0.3,3.3,0.8,4.5,1.2c0,0.1,0,0.3-0.1,0.4c-0.5,1.8,0,3.7,1.4,5.5c1.5,2,4.4,4,7.4,4h0
			c1,0,1.9-0.2,2.7-0.7c0.1,0,0.2-0.1,0.2-0.1c0.8,1.2,1.8,2.7,2.4,4.1c-0.1,0.1-0.2,0.1-0.2,0.2c-2.6,1.5-3.1,5-2.8,7.8
			c0.5,3.5,2.2,5.9,4.7,6.6c0.1,0,0.2,0.1,0.3,0.1c-0.2,1.3-0.7,2.8-1.3,4.5c-0.1,0-0.2,0-0.3,0c-0.5-0.1-1-0.2-1.5-0.2
			c-2.6,0-5.3,1.8-6.9,4.6c-1.4,2.5-1.6,5.1-0.4,7.2c0.1,0.1,0.1,0.2,0.2,0.4c-1.1,0.8-2.7,1.7-4.1,2.3c-0.1-0.1-0.1-0.2-0.2-0.3
			c-1.1-1.9-3.4-3-6.2-3c-3.3,0-7.3,1.6-8.2,5C39.4,70.1,39.4,70.2,39.3,70.3z M44,32.5c-5.8,0-10.9,3.9-12.4,9.5
			c-0.9,3.3-0.4,6.8,1.3,9.7c1.7,3,4.5,5.1,7.8,6c1.1,0.3,2.2,0.4,3.3,0.4c5.8,0,10.9-3.9,12.4-9.5c1.8-6.8-2.2-13.9-9.1-15.7
			C46.2,32.6,45.1,32.5,44,32.5z"/>
		<path fill="#0AA54A" d="M40.5,73.9c-2.5,0-6.6-1.5-8.4-2.2l-0.4-0.2l-0.1-0.4c-0.2-1.1-0.3-2.2,0-3.3c0.3-1.1-0.3-2.1-0.8-2.8
			c-1.1-1.4-3-2.5-4.5-2.5c-0.5,0-0.9,0.1-1.2,0.3c-1,0.6-2.3,0.9-3.4,0.8l-0.3,0l-0.2-0.2c-1.5-1.7-3.7-5.6-4.3-7.5l-0.1-0.3
			l0.1-0.3c0.4-1,1.2-1.9,2.4-2.6c1.3-0.8,2.1-2.6,1.8-4.6c-0.1-0.9-0.6-2.9-2.9-3.6c-1.1-0.3-2.7-1.3-3.1-2.1L15,42.4l0-0.2
			c0.1-1.8,1.3-6.4,2.1-8.2l0.1-0.3l0.3-0.1c1.1-0.5,2.4-0.5,3.6-0.2c1.3,0.4,3.2-1,4.4-3c0.8-1.4,1-2.8,0.6-3.5
			c-0.5-0.9-0.6-1.9-0.7-2.7c0-0.2,0-0.1-0.1-0.5c0-0.3,0.3-0.7,0.3-0.7c1.6-1.3,5.6-3.7,7.5-4.2c0.3-0.1,0.4,0,0.5,0
			c0.9,0.4,1.9,1.3,2.5,2.3c0.5,0.8,1.8,1.3,3.4,1.3c2,0,4.2-0.8,4.6-2.3c0.3-1.1,1.1-2.4,1.8-2.9c0.2-0.1,0.4-0.1,0.6-0.1
			c2.9,0.3,6.7,1.4,8.3,2.3c0,0,0.3,0.2,0.4,0.5c0.1,0.3,0.4,2.2,0.1,3.3c-0.2,0.7,0.1,1.6,0.8,2.5c1.2,1.5,3.2,2.7,4.7,2.7
			c0.4,0,0.7-0.1,1-0.2c1-0.6,2.1-0.8,3.2-0.8l0.4,0l0.2,0.3c1.3,1.6,3.6,5.2,4.3,7.7l0.1,0.3l-0.2,0.3c-0.5,0.9-1.3,1.7-2.2,2.3
			c-0.9,0.5-1.3,2.3-1.1,4.3c0.3,2,1.1,3.4,2.1,3.7c1.2,0.3,2,0.8,2.9,1.8l0.2,0.3l0,0.3c-0.2,2.1-0.9,5-2.3,8.3l-0.2,0.4l-0.4,0.1
			c-0.6,0.1-1.2,0.2-1.8,0.2l0,0c-0.5,0-1-0.1-1.5-0.2c-1.5-0.4-3.4,0.8-4.5,2.8c-0.8,1.4-0.9,2.8-0.4,3.7c0.5,0.9,1,1.9,0.9,3.2
			l0,0.3l-0.2,0.2c-1.4,1.5-5.5,3.8-8,4.5l-0.3,0.1L53.1,72c-0.8-0.5-1.6-1.3-2.2-2.3c-0.5-0.8-1.7-1.3-3.2-1.3
			c-2.3,0-4.5,1.1-4.9,2.4c-0.3,1.2-0.9,2.2-1.6,2.9L41,73.9L40.5,73.9z M33.1,70.4c2,0.8,5.2,1.9,7.2,1.9c0.4-0.5,0.7-1.1,0.9-1.9
			c0.6-2.4,3.7-3.6,6.4-3.6c2.2,0,3.8,0.8,4.6,2.1c0.4,0.6,0.8,1.2,1.3,1.5c2.1-0.7,5.4-2.5,6.7-3.8c0-0.7-0.3-1.3-0.7-2
			c-0.8-1.4-0.7-3.4,0.4-5.3c1-1.8,3.1-3.6,5.3-3.6c0.3,0,0.7,0,1,0.1c0.3,0.1,0.7,0.1,1,0.1l0,0c0.3,0,0.7,0,1-0.1
			c1.1-2.9,1.8-5.3,2-7.1c-0.5-0.5-1.1-0.8-1.9-1c-2-0.5-3-3-3.3-5.1c-0.3-2.1,0-4.9,1.9-5.9c0.6-0.3,1.1-0.8,1.4-1.4
			c-0.7-2-2.5-4.9-3.7-6.5c-0.7,0-1.3,0.2-1.9,0.6c-0.5,0.3-1.1,0.5-1.8,0.5c-2,0-4.5-1.4-5.9-3.3c-1-1.3-1.4-2.7-1.1-3.9
			c0.2-0.7,0.1-1.5,0-2.1c-1.6-0.7-4.7-1.6-7.1-1.9c-0.4,0.4-0.8,1.1-1,1.8c-0.6,2.4-3.6,3.5-6.2,3.5c-2.3,0-4.1-0.8-4.8-2.1
			c-0.4-0.6-1-1.2-1.5-1.5c-1.7,0.6-4.8,2.4-6.3,3.6c0,0,0,0,0,0c0.1,0.7,0.2,1.5,0.5,2.1c0.7,1.3,0.5,3.2-0.6,5.1
			c-1,1.8-3,3.8-5.3,3.8l0,0c-0.3,0-0.6,0-0.9-0.1c-0.8-0.2-1.6-0.2-2.3,0c-0.7,1.7-1.6,5.3-1.8,7c0.3,0.3,1.2,0.9,1.9,1.1
			c2.2,0.6,3.7,2.4,4.1,4.9c0.3,2.6-0.7,5.1-2.6,6.2c-0.5,0.3-1.2,0.8-1.6,1.5c0.6,1.7,2.4,4.8,3.7,6.4c0.7,0,1.5-0.2,2.1-0.6
			c0.6-0.3,1.3-0.5,2-0.5c2,0,4.4,1.3,5.8,3.1c1,1.3,1.4,2.8,1,4.2C32.9,68.9,33,69.6,33.1,70.4z"/>
	</g>
</g>
</svg>
