<svg version="1.1" id="industrial-internet" xmlns="http://www.w3.org/2000/svg" xmlns:xlink="http://www.w3.org/1999/xlink" x="0px" y="0px"
	 width="143px" height="53px" viewBox="0 0 143 53" enable-background="new 0 0 143 53" xml:space="preserve">
	<g>
	
		<path fill="none" stroke="#FDBD68" stroke-width="1.7773" stroke-linejoin="round" stroke-miterlimit="10" stroke-dasharray="1.7773" d="
		M15.2,20.9c0,0,19.8-38.6,57.1-6.6c0,0,34.8-35.6,55.5,8.2"/>
	<g>
		<path fill="#0960AC" d="M106.6,48.9V51c0,0.7-0.6,1.3-1.3,1.3H37.7c-0.7,0-1.3-0.6-1.3-1.3v-2.1"/>
		<g>
			<path fill="#0960AC" d="M98.5,16.2c0-0.7-0.6-1.3-1.3-1.3H45.8c-0.7,0-1.3,0.6-1.3,1.3v33.1c0,0.7,0.6,1.3,1.3,1.3h51.4
				c0.7,0,1.3-0.6,1.3-1.3V16.2z"/>
			<rect x="46.6" y="16.9" fill="#FFFFFF" width="49.8" height="30.2"/>
		</g>
	</g>
	<path fill="#0960AC" d="M142,30.3c0,0.6-0.5,1.1-1.1,1.1h-27.3c-0.6,0-1.1-0.5-1.1-1.1v-6.5c0-0.6,0.5-1.1,1.1-1.1h27.3
		c0.6,0,1.1,0.5,1.1,1.1V30.3z"/>
	<rect x="115.3" y="25.6" fill="#FFFFFF" width="17.9" height="2.8"/>
	<path fill="#0960AC" d="M142,40.7c0,0.6-0.5,1.1-1.1,1.1h-27.3c-0.6,0-1.1-0.5-1.1-1.1v-6.5c0-0.6,0.5-1.1,1.1-1.1h27.3
		c0.6,0,1.1,0.5,1.1,1.1V40.7z"/>
	<rect x="115.3" y="36.1" fill="#FFFFFF" width="17.9" height="2.8"/>
	<path fill="#0960AC" d="M142,51.2c0,0.6-0.5,1.1-1.1,1.1h-27.3c-0.6,0-1.1-0.5-1.1-1.1v-6.5c0-0.6,0.5-1.1,1.1-1.1h27.3
		c0.6,0,1.1,0.5,1.1,1.1V51.2z"/>
	<rect x="115.3" y="46.5" fill="#FFFFFF" width="17.9" height="2.8"/>
	<path fill="#0960AC" d="M30.5,30.3c0,0.6-0.5,1.1-1.1,1.1H2.1c-0.6,0-1.1-0.5-1.1-1.1v-6.5c0-0.6,0.5-1.1,1.1-1.1h27.3
		c0.6,0,1.1,0.5,1.1,1.1V30.3z"/>
	<rect x="3.8" y="25.6" fill="#FFFFFF" width="17.9" height="2.8"/>
	<path fill="#0960AC" d="M30.5,40.7c0,0.6-0.5,1.1-1.1,1.1H2.1c-0.6,0-1.1-0.5-1.1-1.1v-6.5c0-0.6,0.5-1.1,1.1-1.1h27.3
		c0.6,0,1.1,0.5,1.1,1.1V40.7z"/>
	<rect x="3.8" y="36.1" fill="#FFFFFF" width="17.9" height="2.8"/>
	<path fill="#0960AC" d="M30.5,51.2c0,0.6-0.5,1.1-1.1,1.1H2.1c-0.6,0-1.1-0.5-1.1-1.1v-6.5c0-0.6,0.5-1.1,1.1-1.1h27.3
		c0.6,0,1.1,0.5,1.1,1.1V51.2z"/>
	<rect x="3.8" y="46.5" fill="#FFFFFF" width="17.9" height="2.8"/>
	<g class="lights">
		<circle fill="#FDBD68" cx="137.9" cy="27" r="2"/>
		<circle fill="#FDBD68" cx="137.9" cy="37.5" r="2"/>
		<circle fill="#FDBD68" cx="137.9" cy="47.9" r="2"/>
		<circle fill="#FDBD68" cx="26.4" cy="27" r="2"/>
		<circle fill="#FDBD68" cx="26.4" cy="37.5" r="2"/>
		<circle fill="#FDBD68" cx="26.4" cy="47.9" r="2"/>
	</g>
</g>
</svg>
