<?xml version="1.0" encoding="utf-8"?>
<!-- Generator: Adobe Illustrator 18.0.0, SVG Export Plug-In . SVG Version: 6.00 Build 0)  -->
<!DOCTYPE svg PUBLIC "-//W3C//DTD SVG 1.1//EN" "http://www.w3.org/Graphics/SVG/1.1/DTD/svg11.dtd">
<svg version="1.1" id="Layer_1" xmlns="http://www.w3.org/2000/svg" xmlns:xlink="http://www.w3.org/1999/xlink" x="0px" y="0px"
	 width="107px" height="58px" viewBox="0 0 107 58" enable-background="new 0 0 107 58" xml:space="preserve">
<g>
	<g>
		
			<path fill="none" stroke="#4489C8" stroke-width="1.7773" stroke-linecap="round" stroke-linejoin="round" stroke-miterlimit="10" d="
			M81.4,20.9c1.9-2.8,5.8-6.3,13.7-6.5c8.5-0.2,9.3-3.8,9.3-3.8s6.6,12.5-12.1,14.8c0,0-1.9,0.2-2.3,1.3"/>
		
			<path fill="none" stroke="#4489C8" stroke-width="1.7773" stroke-linecap="round" stroke-linejoin="round" stroke-miterlimit="10" d="
			M101.8,22.9c0.9,10.8-14.3,8.6-14.8,12.1"/>
		
			<path fill="none" stroke="#4489C8" stroke-width="1.7773" stroke-linecap="round" stroke-linejoin="round" stroke-miterlimit="10" d="
			M96.9,31.7c0,0,0.6,9.7-18.7,10.9"/>
	</g>
	<g>
		
			<path fill="none" stroke="#4489C8" stroke-width="1.7773" stroke-linecap="round" stroke-linejoin="round" stroke-miterlimit="10" d="
			M25.6,20.9c-1.9-2.8-5.8-6.3-13.7-6.5c-8.5-0.2-9.3-3.8-9.3-3.8s-6.6,12.5,12.1,14.8c0,0,1.9,0.2,2.3,1.3"/>
		
			<path fill="none" stroke="#4489C8" stroke-width="1.7773" stroke-linecap="round" stroke-linejoin="round" stroke-miterlimit="10" d="
			M5.2,22.9c-0.9,10.8,14.3,8.6,14.8,12.1"/>
		
			<path fill="none" stroke="#4489C8" stroke-width="1.7773" stroke-linecap="round" stroke-linejoin="round" stroke-miterlimit="10" d="
			M10.1,31.7c0,0-0.6,9.7,18.7,10.9"/>
	</g>
	<circle fill="#0960AC" cx="53.4" cy="29" r="25.9"/>
	<path fill="#FFFFFF" d="M75.1,27.3C75.1,27.3,75.1,27.3,75.1,27.3c-0.1,0-0.1,0-0.1-0.1c-0.1,0-0.3-0.1-0.5-0.2
		c-0.1,0-0.2-0.1-0.4-0.1c-0.1,0-0.3-0.1-0.4-0.1c-0.2,0-0.3-0.1-0.5-0.1c-0.2,0-0.4-0.1-0.6-0.1c-0.4,0-0.8-0.1-1.3-0.1
		c-0.2,0-0.5,0-0.7,0c-0.2,0-0.5,0-0.7,0.1c-0.5,0.1-1,0.2-1.5,0.3c-0.2,0.1-0.5,0.1-0.7,0.2l-0.3,0.1l-0.2,0.1L67,27.4
		c-0.5,0.2-0.9,0.3-1.4,0.4C65.4,27.9,65.2,28,65,28c0,0-0.1,0-0.2,0l-0.1,0c-0.1,0-0.2,0-0.3,0.1c-0.1,0-0.2,0-0.3,0
		c-0.1,0-0.2,0-0.3,0c-0.2,0-0.4,0-0.6,0c-0.4,0-0.8,0-1.1,0c-0.4,0-0.7-0.1-1-0.1c-0.2,0-0.3,0-0.5-0.1c-0.1-0.5-0.2-0.9-0.3-1.3
		c0.1,0,0.2,0,0.2,0c0.3,0,0.6-0.1,1-0.2c0.4-0.1,0.8-0.2,1.2-0.3c0.2-0.1,0.4-0.1,0.6-0.2c0.1,0,0.2-0.1,0.3-0.1l0,0l0,0
		c0,0,0,0,0,0l0,0l0,0l0.1,0c0,0,0.1,0,0.2-0.1c0.1,0,0.2-0.1,0.3-0.2c0.1,0,0.1-0.1,0.2-0.1c0.1,0,0.1-0.1,0.2-0.1
		c0.2-0.1,0.4-0.3,0.6-0.4c0.4-0.3,0.8-0.6,1.2-0.8l0.1-0.1l0.1-0.1l0.3-0.2c0.2-0.1,0.4-0.2,0.6-0.4c0.4-0.2,0.8-0.5,1.2-0.6
		c0.2-0.1,0.4-0.2,0.6-0.3c0.2-0.1,0.4-0.2,0.6-0.2c0.4-0.1,0.7-0.2,1-0.3c0.2,0,0.3-0.1,0.5-0.1c0.1,0,0.3,0,0.4-0.1
		c0.1,0,0.3,0,0.4,0c0.1,0,0.2,0,0.3,0c0.2,0,0.3,0,0.4,0c0,0,0,0,0.1,0c0,0,0,0,0,0c0,0,0,0,0,0c0,0,0,0,0,0c0,0,0-0.1,0-0.1
		c0,0,0,0,0,0c0,0,0,0,0,0c0,0,0,0,0-0.1c0-0.1,0-0.1,0-0.1l0.1-1c0,0,0,0,0-0.1c0,0,0,0,0-0.1c0,0,0,0,0,0c0,0,0,0,0,0
		c0,0,0-0.1,0-0.1c0,0,0,0,0,0c0,0,0,0,0,0c0,0,0,0,0,0c0,0-0.1,0-0.1,0c-0.1,0-0.3,0-0.6,0c-0.1,0-0.3,0-0.4,0c-0.1,0-0.3,0-0.5,0
		c-0.2,0-0.3,0-0.5,0.1c-0.2,0-0.4,0.1-0.6,0.1c-0.4,0.1-0.8,0.2-1.2,0.4c-0.2,0.1-0.4,0.2-0.6,0.3c-0.2,0.1-0.4,0.2-0.6,0.3
		c-0.4,0.2-0.9,0.5-1.3,0.8c-0.2,0.1-0.4,0.3-0.6,0.4l-0.3,0.2l-0.2,0.1l-0.1,0.1c-0.4,0.3-0.8,0.6-1.1,0.9
		c-0.2,0.1-0.4,0.3-0.5,0.4c0,0-0.1,0.1-0.1,0.1l-0.1,0.1c-0.1,0.1-0.2,0.1-0.3,0.2c-0.1,0-0.2,0.1-0.3,0.1c-0.1,0-0.2,0.1-0.3,0.1
		c-0.2,0.1-0.4,0.2-0.6,0.2c-0.4,0.1-0.7,0.2-1.1,0.3c-0.3,0.1-0.7,0.2-0.9,0.2c-0.2,0-0.3,0.1-0.5,0.1c-0.2-0.4-0.5-0.8-0.7-1.1
		c0.1,0,0.1-0.1,0.2-0.1c0.3-0.1,0.6-0.3,0.9-0.5c0.3-0.2,0.7-0.4,1-0.7c0.2-0.1,0.4-0.3,0.5-0.4c0.1-0.1,0.2-0.2,0.3-0.2l0,0l0,0
		c0,0,0,0,0,0l0,0l0,0l0.1-0.1c0,0,0.1-0.1,0.1-0.1c0.1-0.1,0.2-0.2,0.3-0.3c0,0,0.1-0.1,0.1-0.1c0-0.1,0.1-0.1,0.1-0.1
		c0.2-0.2,0.3-0.4,0.5-0.6c0.3-0.4,0.6-0.8,0.8-1.2l0.1-0.1l0.1-0.1l0.2-0.3c0.1-0.2,0.3-0.4,0.4-0.5c0.3-0.4,0.6-0.7,0.9-1
		c0.1-0.2,0.3-0.3,0.4-0.4c0.2-0.1,0.3-0.3,0.4-0.4c0.3-0.3,0.6-0.5,0.9-0.6c0.1-0.1,0.3-0.2,0.4-0.2c0.1-0.1,0.3-0.1,0.4-0.2
		c0.1-0.1,0.2-0.1,0.3-0.2c0.1,0,0.2-0.1,0.3-0.1c0.2-0.1,0.3-0.1,0.4-0.1c0,0,0,0,0.1,0c0,0,0,0,0,0c0,0,0,0,0,0c0,0,0,0,0,0
		c0,0,0-0.1,0-0.1c0,0,0,0,0,0c0,0,0,0,0,0c0,0,0,0,0-0.1c0-0.1,0-0.1,0-0.1l-0.3-1c0,0,0,0,0-0.1c0,0,0,0,0,0c0,0,0,0,0,0
		c0,0,0,0,0,0c0,0,0-0.1,0-0.1c0,0,0,0,0,0c0,0,0,0,0,0c0,0,0,0,0,0c0,0,0,0-0.1,0c-0.1,0-0.3,0.1-0.5,0.2c-0.1,0-0.2,0.1-0.4,0.1
		c-0.1,0.1-0.3,0.1-0.4,0.2c-0.1,0.1-0.3,0.2-0.5,0.2c-0.2,0.1-0.3,0.2-0.5,0.3c-0.3,0.2-0.7,0.5-1,0.8c-0.2,0.1-0.3,0.3-0.5,0.5
		c-0.2,0.2-0.3,0.3-0.5,0.5c-0.3,0.4-0.6,0.7-0.9,1.1c-0.2,0.2-0.3,0.4-0.4,0.6L63,18.7l-0.1,0.2L62.8,19c-0.3,0.4-0.5,0.8-0.8,1.2
		c-0.1,0.2-0.2,0.4-0.4,0.5c0,0-0.1,0.1-0.1,0.1L61.5,21c-0.1,0.1-0.1,0.1-0.2,0.2c-0.1,0.1-0.1,0.2-0.2,0.2
		c-0.1,0.1-0.1,0.1-0.2,0.2c-0.1,0.1-0.3,0.3-0.4,0.4c-0.3,0.3-0.6,0.5-0.9,0.7c-0.3,0.2-0.6,0.4-0.8,0.6c-0.1,0.1-0.3,0.2-0.4,0.3
		c-0.3-0.3-0.7-0.6-1.1-0.8c0.1-0.1,0.1-0.1,0.2-0.2c0.2-0.2,0.4-0.5,0.7-0.8c0.2-0.3,0.5-0.6,0.7-1c0.1-0.2,0.3-0.4,0.4-0.6
		c0.1-0.1,0.1-0.2,0.2-0.3l0,0l0,0c0,0,0,0,0,0l0,0l0,0l0-0.1c0-0.1,0-0.1,0.1-0.2c0-0.1,0.1-0.2,0.2-0.3c0-0.1,0.1-0.1,0.1-0.2
		c0-0.1,0-0.1,0.1-0.2c0.1-0.2,0.2-0.5,0.2-0.7c0.1-0.5,0.2-1,0.4-1.4l0-0.2l0-0.2l0.1-0.3c0.1-0.2,0.1-0.4,0.2-0.6
		c0.1-0.4,0.3-0.8,0.5-1.2c0.1-0.2,0.2-0.4,0.3-0.6c0.1-0.2,0.2-0.4,0.3-0.5c0.2-0.3,0.4-0.6,0.6-0.9c0.1-0.1,0.2-0.3,0.3-0.4
		c0.1-0.1,0.2-0.2,0.3-0.3c0.1-0.1,0.2-0.2,0.3-0.3c0.1-0.1,0.2-0.1,0.2-0.2c0.1-0.1,0.3-0.2,0.3-0.3c0,0,0,0,0.1,0c0,0,0,0,0,0
		c0,0,0,0,0,0c0,0,0,0,0,0c0,0,0-0.1,0-0.1c0,0,0,0,0,0c0,0,0,0,0,0c0,0,0,0,0,0c0-0.1,0-0.1,0-0.1l-0.6-0.8c0,0,0,0-0.1-0.1
		c0,0,0,0,0,0c0,0,0,0,0,0c0,0,0,0,0,0c0,0,0,0-0.1-0.1c0,0,0,0,0,0c0,0,0,0,0,0c0,0,0,0,0,0c0,0,0,0-0.1,0.1
		c-0.1,0.1-0.3,0.2-0.4,0.3c-0.1,0.1-0.2,0.2-0.3,0.3c-0.1,0.1-0.2,0.2-0.3,0.3c-0.1,0.1-0.2,0.3-0.3,0.4c-0.1,0.1-0.2,0.3-0.4,0.5
		c-0.2,0.3-0.5,0.7-0.7,1.1c-0.1,0.2-0.2,0.4-0.3,0.6c-0.1,0.2-0.2,0.4-0.3,0.7c-0.2,0.4-0.3,0.9-0.5,1.4c-0.1,0.2-0.1,0.5-0.2,0.7
		l-0.1,0.4l0,0.2l0,0.2c-0.1,0.5-0.2,1-0.3,1.4c-0.1,0.2-0.1,0.4-0.2,0.6c0,0.1,0,0.1,0,0.2l0,0.1c0,0.1-0.1,0.2-0.1,0.3
		c0,0.1-0.1,0.2-0.1,0.3c0,0.1-0.1,0.2-0.1,0.3c-0.1,0.2-0.2,0.4-0.3,0.5c-0.2,0.3-0.4,0.7-0.6,0.9c-0.2,0.3-0.4,0.6-0.6,0.8
		c-0.1,0.1-0.2,0.3-0.3,0.4c-0.4-0.2-0.8-0.3-1.3-0.4c0-0.1,0.1-0.1,0.1-0.2c0.1-0.3,0.2-0.6,0.4-1c0.1-0.4,0.2-0.7,0.4-1.2
		c0.1-0.2,0.1-0.4,0.1-0.7c0-0.1,0-0.2,0.1-0.4l0,0l0,0c0,0,0,0,0,0l0,0l0,0l0-0.1c0-0.1,0-0.1,0-0.2c0-0.1,0-0.2,0-0.4
		c0-0.1,0-0.1,0-0.2c0-0.1,0-0.1,0-0.2c0-0.3,0-0.5,0-0.8c0-0.5-0.1-1-0.1-1.5l0-0.2l0-0.2l0-0.4c0-0.2,0-0.5,0-0.7
		c0-0.5,0-0.9,0-1.3c0-0.2,0-0.4,0.1-0.6c0-0.2,0.1-0.4,0.1-0.6c0.1-0.4,0.2-0.7,0.2-1c0.1-0.2,0.1-0.3,0.1-0.4
		c0.1-0.1,0.1-0.3,0.2-0.4c0.1-0.1,0.1-0.2,0.2-0.3c0.1-0.1,0.1-0.2,0.1-0.3c0.1-0.2,0.2-0.3,0.2-0.4c0,0,0,0,0-0.1c0,0,0,0,0,0
		c0,0,0,0,0,0c0,0,0,0,0,0c0,0,0,0-0.1-0.1c0,0,0,0,0,0c0,0,0,0,0,0c0,0,0,0,0,0c0,0-0.1-0.1-0.1-0.1l-0.8-0.6c0,0,0,0-0.1,0
		c0,0,0,0,0,0c0,0,0,0,0,0c0,0,0,0,0,0c0,0-0.1,0-0.1,0c0,0,0,0,0,0c0,0,0,0,0,0c0,0,0,0,0,0c0,0,0,0,0,0.1
		c-0.1,0.1-0.2,0.3-0.3,0.5C55.2,8,55.1,8.2,55,8.3c-0.1,0.1-0.1,0.3-0.2,0.4c-0.1,0.2-0.1,0.3-0.2,0.5c-0.1,0.2-0.1,0.4-0.2,0.5
		c-0.1,0.4-0.2,0.8-0.3,1.2c0,0.2-0.1,0.5-0.1,0.7c0,0.2,0,0.5,0,0.7c0,0.5,0,1,0,1.5c0,0.2,0,0.5,0.1,0.8l0,0.4l0,0.2l0,0.2
		c0.1,0.5,0.1,1,0.2,1.4c0,0.2,0.1,0.4,0.1,0.7c0,0.1,0,0.1,0,0.2l0,0.1c0,0.1,0,0.2,0,0.3c0,0.1,0,0.2,0,0.3c0,0.1,0,0.2,0,0.3
		c0,0.2-0.1,0.4-0.1,0.6c-0.1,0.4-0.1,0.8-0.2,1.1c-0.1,0.3-0.2,0.7-0.3,0.9c0,0.2-0.1,0.3-0.1,0.5c-0.1,0-0.2,0-0.3,0
		c-0.4,0-0.7,0-1.1,0.1c0-0.1,0-0.2,0-0.2c0-0.3,0-0.6,0-1c0-0.4,0-0.8-0.1-1.2c0-0.2,0-0.4-0.1-0.7c0-0.1,0-0.2-0.1-0.4l0,0l0,0
		c0,0,0,0,0,0l0,0l0,0l0-0.1c0-0.1,0-0.1,0-0.2c0-0.1-0.1-0.2-0.1-0.4c0-0.1,0-0.1-0.1-0.2c0-0.1,0-0.1-0.1-0.2
		c-0.1-0.2-0.2-0.5-0.3-0.7c-0.2-0.5-0.4-0.9-0.6-1.3l-0.1-0.2l-0.1-0.2l-0.1-0.3c-0.1-0.2-0.2-0.4-0.3-0.6
		c-0.2-0.4-0.3-0.8-0.4-1.3c-0.1-0.2-0.1-0.4-0.2-0.6c0-0.2-0.1-0.4-0.1-0.6c-0.1-0.4-0.1-0.7-0.1-1.1c0-0.2,0-0.3,0-0.5
		c0-0.1,0-0.3,0-0.4c0-0.1,0-0.3,0-0.4c0-0.1,0-0.2,0.1-0.3c0-0.2,0.1-0.3,0.1-0.4c0,0,0,0,0-0.1c0,0,0,0,0,0c0,0,0,0,0,0
		c0,0,0,0,0,0c0,0-0.1,0-0.1,0c0,0,0,0,0,0c0,0,0,0,0,0c0,0,0,0-0.1,0c-0.1,0-0.1,0-0.1,0l-1-0.3c0,0,0,0-0.1,0c0,0,0,0-0.1,0
		c0,0,0,0,0,0c0,0,0,0,0,0c0,0-0.1,0-0.1,0c0,0,0,0,0,0c0,0,0,0,0,0c0,0,0,0,0,0c0,0,0,0.1,0,0.1c0,0.1-0.1,0.3-0.1,0.5
		c0,0.1,0,0.2-0.1,0.4c0,0.1,0,0.3,0,0.5c0,0.2,0,0.3,0,0.5c0,0.2,0,0.4,0,0.6c0,0.4,0.1,0.8,0.2,1.3c0,0.2,0.1,0.4,0.2,0.7
		c0.1,0.2,0.1,0.5,0.2,0.7c0.1,0.5,0.3,0.9,0.5,1.4c0.1,0.2,0.2,0.5,0.3,0.7l0.2,0.3l0.1,0.2l0.1,0.2c0.2,0.4,0.5,0.9,0.7,1.3
		c0.1,0.2,0.2,0.4,0.3,0.6c0,0,0,0.1,0.1,0.1l0.1,0.1c0,0.1,0.1,0.2,0.1,0.3c0,0.1,0.1,0.2,0.1,0.3c0,0.1,0,0.2,0.1,0.3
		c0.1,0.2,0.1,0.4,0.1,0.6c0.1,0.4,0.1,0.8,0.2,1.1c0,0.4,0.1,0.7,0.1,1c0,0.2,0,0.3,0,0.5c-0.4,0.1-0.8,0.3-1.2,0.5
		c0-0.1,0-0.1-0.1-0.2c-0.1-0.3-0.2-0.6-0.3-1c-0.1-0.3-0.3-0.7-0.5-1.1c-0.1-0.2-0.2-0.4-0.3-0.6c-0.1-0.1-0.1-0.2-0.2-0.3l0,0l0,0
		c0,0,0,0,0,0l0,0l0,0l0-0.1c0,0-0.1-0.1-0.1-0.1c-0.1-0.1-0.1-0.2-0.2-0.3c0-0.1-0.1-0.1-0.1-0.2c0-0.1-0.1-0.1-0.1-0.1
		c-0.2-0.2-0.3-0.4-0.5-0.6c-0.3-0.4-0.7-0.7-1-1l-0.1-0.1l-0.1-0.1l-0.3-0.3c-0.2-0.2-0.3-0.3-0.5-0.5c-0.3-0.3-0.6-0.7-0.8-1
		c-0.1-0.2-0.2-0.3-0.4-0.5c-0.1-0.2-0.2-0.3-0.3-0.5c-0.2-0.3-0.3-0.7-0.5-0.9c-0.1-0.2-0.1-0.3-0.2-0.4c0-0.1-0.1-0.3-0.1-0.4
		c0-0.1-0.1-0.2-0.1-0.4c0-0.1,0-0.2-0.1-0.3c0-0.2,0-0.3-0.1-0.4c0,0,0,0,0-0.1c0,0,0,0,0,0c0,0,0,0,0,0c0,0,0,0,0,0
		c0,0-0.1,0-0.1,0c0,0,0,0,0,0c0,0,0,0,0,0c0,0,0,0-0.1,0c-0.1,0-0.1,0-0.1,0l-1,0.1c0,0,0,0-0.1,0c0,0,0,0-0.1,0c0,0,0,0,0,0
		c0,0,0,0,0,0c0,0-0.1,0-0.1,0c0,0,0,0,0,0c0,0,0,0,0,0c0,0,0,0,0,0c0,0,0,0.1,0,0.1c0,0.1,0,0.3,0.1,0.5c0,0.1,0.1,0.2,0.1,0.4
		c0,0.1,0.1,0.3,0.1,0.4c0,0.2,0.1,0.3,0.2,0.5c0.1,0.2,0.1,0.4,0.2,0.5c0.2,0.4,0.4,0.8,0.6,1.1c0.1,0.2,0.2,0.4,0.4,0.6
		c0.1,0.2,0.3,0.4,0.4,0.6c0.3,0.4,0.6,0.8,1,1.1c0.2,0.2,0.4,0.4,0.5,0.5l0.3,0.3l0.1,0.1l0.1,0.1c0.4,0.3,0.7,0.7,1.1,1
		c0.2,0.2,0.3,0.3,0.5,0.5c0,0,0.1,0.1,0.1,0.1l0.1,0.1c0.1,0.1,0.1,0.1,0.2,0.2c0.1,0.1,0.1,0.2,0.2,0.2c0.1,0.1,0.1,0.2,0.2,0.3
		c0.1,0.2,0.2,0.3,0.3,0.5c0.2,0.3,0.4,0.7,0.5,1c0.2,0.3,0.3,0.6,0.4,0.9c0.1,0.2,0.1,0.3,0.2,0.4c-0.4,0.3-0.7,0.6-1,0.9
		c0-0.1-0.1-0.1-0.1-0.2c-0.2-0.2-0.4-0.5-0.6-0.8c-0.2-0.3-0.5-0.6-0.8-0.9c-0.2-0.2-0.3-0.3-0.5-0.5c-0.1-0.1-0.2-0.2-0.3-0.2l0,0
		l0,0c0,0,0,0,0,0l0,0l0,0l-0.1,0c0,0-0.1-0.1-0.1-0.1c-0.1-0.1-0.2-0.1-0.3-0.2c-0.1,0-0.1-0.1-0.2-0.1c-0.1,0-0.1-0.1-0.2-0.1
		c-0.2-0.1-0.4-0.2-0.7-0.4c-0.5-0.2-0.9-0.4-1.3-0.6L42.5,20l-0.2-0.1L42,19.7c-0.2-0.1-0.4-0.2-0.6-0.3c-0.4-0.2-0.8-0.4-1.1-0.7
		c-0.2-0.1-0.3-0.2-0.5-0.4c-0.2-0.1-0.3-0.2-0.5-0.4c-0.3-0.2-0.6-0.5-0.8-0.7c-0.1-0.1-0.2-0.2-0.3-0.4c-0.1-0.1-0.2-0.2-0.3-0.3
		c-0.1-0.1-0.1-0.2-0.2-0.3c-0.1-0.1-0.1-0.2-0.2-0.3c-0.1-0.2-0.2-0.3-0.2-0.4c0,0,0,0,0-0.1c0,0,0,0,0,0c0,0,0,0,0,0c0,0,0,0,0,0
		c0,0-0.1,0-0.1,0c0,0,0,0,0,0c0,0,0,0,0,0c0,0,0,0,0,0c-0.1,0-0.1,0-0.1,0l-0.9,0.4c0,0,0,0-0.1,0.1c0,0,0,0,0,0c0,0,0,0,0,0
		c0,0,0,0,0,0c0,0,0,0-0.1,0.1c0,0,0,0,0,0c0,0,0,0,0,0c0,0,0,0,0,0c0,0,0,0,0,0.1c0.1,0.1,0.1,0.3,0.3,0.5c0.1,0.1,0.1,0.2,0.2,0.3
		c0.1,0.1,0.2,0.2,0.3,0.4c0.1,0.1,0.2,0.3,0.3,0.4c0.1,0.1,0.2,0.3,0.4,0.4c0.3,0.3,0.6,0.6,0.9,0.9c0.2,0.1,0.4,0.3,0.6,0.4
		c0.2,0.1,0.4,0.3,0.6,0.4c0.4,0.3,0.8,0.5,1.3,0.7c0.2,0.1,0.5,0.2,0.7,0.3l0.3,0.1l0.2,0.1l0.2,0.1c0.5,0.2,0.9,0.4,1.3,0.5
		c0.2,0.1,0.4,0.2,0.6,0.3c0,0,0.1,0,0.1,0.1l0.1,0.1c0.1,0,0.2,0.1,0.3,0.2c0.1,0.1,0.2,0.1,0.3,0.2c0.1,0.1,0.2,0.1,0.2,0.2
		c0.2,0.1,0.3,0.2,0.5,0.4c0.3,0.3,0.6,0.5,0.8,0.8c0.3,0.2,0.5,0.5,0.7,0.7c0.1,0.1,0.2,0.2,0.3,0.4c-0.2,0.4-0.4,0.8-0.6,1.2
		c-0.1,0-0.1-0.1-0.2-0.1c-0.3-0.2-0.5-0.3-0.9-0.5c-0.3-0.2-0.7-0.4-1.1-0.5c-0.2-0.1-0.4-0.2-0.6-0.3c-0.1,0-0.2-0.1-0.3-0.1l0,0
		l0,0c0,0,0,0,0,0l0,0l0,0l-0.1,0c-0.1,0-0.1,0-0.2,0c-0.1,0-0.2-0.1-0.4-0.1c-0.1,0-0.1,0-0.2,0c-0.1,0-0.1,0-0.2,0
		c-0.3,0-0.5-0.1-0.8-0.1c-0.5,0-1-0.1-1.5-0.1l-0.2,0l-0.2,0l-0.4,0c-0.2,0-0.4-0.1-0.7-0.1c-0.4-0.1-0.9-0.1-1.3-0.3
		c-0.2,0-0.4-0.1-0.6-0.2c-0.2-0.1-0.4-0.1-0.6-0.2c-0.4-0.1-0.7-0.3-1-0.4C35.3,23,35.1,23,35,22.9c-0.1-0.1-0.2-0.1-0.4-0.2
		c-0.1-0.1-0.2-0.1-0.3-0.2c-0.1-0.1-0.2-0.1-0.2-0.2C34,22.1,33.9,22,33.8,22c0,0,0,0,0,0c0,0,0,0,0,0c0,0,0,0,0,0c0,0,0,0,0,0
		c0,0-0.1,0-0.1,0.1c0,0,0,0,0,0c0,0,0,0,0,0c0,0,0,0,0,0c0,0-0.1,0.1-0.1,0.1l-0.7,0.7c0,0,0,0-0.1,0.1c0,0,0,0,0,0c0,0,0,0,0,0
		c0,0,0,0,0,0c0,0,0,0,0,0.1c0,0,0,0,0,0c0,0,0,0,0,0c0,0,0,0,0,0c0,0,0,0,0.1,0.1c0.1,0.1,0.2,0.2,0.4,0.4c0.1,0.1,0.2,0.2,0.3,0.2
		c0.1,0.1,0.2,0.2,0.4,0.3c0.1,0.1,0.3,0.2,0.4,0.3c0.2,0.1,0.3,0.2,0.5,0.3c0.4,0.2,0.8,0.3,1.2,0.5c0.2,0.1,0.4,0.1,0.7,0.2
		c0.2,0.1,0.5,0.1,0.7,0.2c0.5,0.1,1,0.2,1.5,0.2c0.2,0,0.5,0.1,0.8,0.1l0.4,0l0.2,0l0.2,0c0.5,0,1,0,1.4,0.1c0.2,0,0.4,0,0.7,0.1
		c0.1,0,0.1,0,0.2,0l0.1,0c0.1,0,0.2,0,0.3,0.1c0.1,0,0.2,0,0.3,0.1c0.1,0,0.2,0.1,0.3,0.1c0.2,0.1,0.4,0.1,0.6,0.2
		c0.4,0.1,0.7,0.3,1,0.4c0.3,0.1,0.6,0.3,0.9,0.4c0.2,0.1,0.3,0.1,0.4,0.2c-0.1,0.4-0.1,0.9-0.2,1.3c-0.1,0-0.2,0-0.2,0
		c-0.3-0.1-0.6-0.1-1-0.2c-0.4-0.1-0.8-0.1-1.2-0.1c-0.2,0-0.4,0-0.7,0c-0.1,0-0.2,0-0.4,0h0h0c0,0,0,0,0,0h0l0,0l-0.1,0
		c-0.1,0-0.1,0-0.2,0c-0.1,0-0.2,0-0.4,0c-0.1,0-0.1,0-0.2,0c-0.1,0-0.1,0-0.2,0c-0.3,0-0.5,0.1-0.7,0.2c-0.5,0.1-1,0.3-1.4,0.4
		l-0.2,0l-0.2,0l-0.4,0.1c-0.2,0-0.4,0.1-0.7,0.1c-0.4,0.1-0.9,0.2-1.3,0.2c-0.2,0-0.4,0-0.6,0.1c-0.2,0-0.4,0-0.6,0
		c-0.4,0-0.7,0-1.1-0.1c-0.2,0-0.3,0-0.5-0.1c-0.1,0-0.3-0.1-0.4-0.1c-0.1,0-0.2-0.1-0.4-0.1c-0.1,0-0.2-0.1-0.3-0.1
		c-0.2-0.1-0.3-0.1-0.4-0.2c0,0,0,0-0.1,0c0,0,0,0,0,0c0,0,0,0,0,0c0,0,0,0,0,0c0,0,0,0.1-0.1,0.1c0,0,0,0,0,0c0,0,0,0,0,0
		c0,0,0,0,0,0c0,0.1-0.1,0.1-0.1,0.1l-0.4,0.9c0,0,0,0,0,0.1c0,0,0,0,0,0.1c0,0,0,0,0,0c0,0,0,0,0,0c0,0,0,0.1,0,0.1c0,0,0,0,0,0
		c0,0,0,0,0,0c0,0,0,0,0,0c0,0,0,0,0.1,0c0.1,0,0.3,0.1,0.5,0.2c0.1,0,0.2,0.1,0.4,0.1c0.1,0,0.3,0.1,0.4,0.1c0.2,0,0.3,0.1,0.5,0.1
		c0.2,0,0.4,0.1,0.6,0.1c0.4,0,0.8,0.1,1.3,0.1c0.2,0,0.5,0,0.7,0c0.2,0,0.5,0,0.7-0.1c0.5-0.1,1-0.2,1.5-0.3
		c0.2-0.1,0.5-0.1,0.7-0.2l0.3-0.1l0.2-0.1l0.2-0.1c0.5-0.2,0.9-0.3,1.4-0.4c0.2-0.1,0.4-0.1,0.6-0.2c0.1,0,0.1,0,0.2,0l0.1,0
		c0.1,0,0.2,0,0.3-0.1c0.1,0,0.2,0,0.3,0c0.1,0,0.2,0,0.3,0c0.2,0,0.4,0,0.6,0c0.4,0,0.8,0,1.1,0c0.4,0,0.7,0.1,1,0.1
		c0.2,0,0.3,0,0.5,0.1c0.1,0.5,0.2,0.9,0.3,1.3c-0.1,0-0.2,0-0.2,0c-0.3,0-0.6,0.1-1,0.2c-0.4,0.1-0.8,0.2-1.2,0.3
		c-0.2,0.1-0.4,0.1-0.6,0.2c-0.1,0-0.2,0.1-0.3,0.1l0,0l0,0c0,0,0,0,0,0l0,0l0,0l-0.1,0c-0.1,0-0.1,0-0.2,0.1
		c-0.1,0-0.2,0.1-0.3,0.2c-0.1,0-0.1,0.1-0.2,0.1c-0.1,0-0.1,0.1-0.2,0.1c-0.2,0.1-0.4,0.3-0.6,0.4c-0.4,0.3-0.8,0.6-1.2,0.8
		L40.2,34L40,34.1l-0.3,0.2c-0.2,0.1-0.4,0.2-0.6,0.4c-0.4,0.2-0.8,0.5-1.2,0.6c-0.2,0.1-0.4,0.2-0.6,0.3c-0.2,0.1-0.4,0.2-0.5,0.2
		c-0.4,0.1-0.7,0.2-1,0.3c-0.2,0-0.3,0.1-0.5,0.1c-0.1,0-0.3,0-0.4,0.1c-0.1,0-0.3,0-0.4,0c-0.1,0-0.2,0-0.3,0c-0.2,0-0.3,0-0.4,0
		c0,0,0,0-0.1,0c0,0,0,0,0,0c0,0,0,0,0,0c0,0,0,0,0,0c0,0,0,0.1,0,0.1c0,0,0,0,0,0c0,0,0,0,0,0c0,0,0,0,0,0.1c0,0.1,0,0.1,0,0.1
		l-0.1,1c0,0,0,0,0,0.1c0,0,0,0,0,0.1c0,0,0,0,0,0c0,0,0,0,0,0c0,0,0,0.1,0,0.1c0,0,0,0,0,0c0,0,0,0,0,0c0,0,0,0,0,0
		c0,0,0.1,0,0.1,0c0.1,0,0.3,0,0.6,0c0.1,0,0.2,0,0.4,0c0.1,0,0.3,0,0.5,0c0.2,0,0.3,0,0.5-0.1c0.2,0,0.4-0.1,0.6-0.1
		c0.4-0.1,0.8-0.2,1.2-0.4c0.2-0.1,0.4-0.2,0.6-0.3c0.2-0.1,0.4-0.2,0.6-0.3c0.4-0.2,0.9-0.5,1.3-0.7c0.2-0.1,0.4-0.3,0.6-0.4
		l0.3-0.2l0.2-0.1l0.1-0.1c0.4-0.3,0.8-0.6,1.1-0.9c0.2-0.1,0.4-0.3,0.5-0.4c0,0,0.1-0.1,0.1-0.1l0.1-0.1c0.1-0.1,0.2-0.1,0.3-0.2
		c0.1,0,0.2-0.1,0.3-0.1c0.1,0,0.2-0.1,0.3-0.1c0.2-0.1,0.4-0.2,0.6-0.2c0.4-0.1,0.7-0.2,1.1-0.3c0.3-0.1,0.7-0.2,0.9-0.2
		c0.2,0,0.3-0.1,0.5-0.1c0.2,0.4,0.5,0.8,0.7,1.1c-0.1,0-0.1,0.1-0.2,0.1c-0.3,0.1-0.6,0.3-0.9,0.5c-0.3,0.2-0.7,0.4-1,0.7
		c-0.2,0.1-0.4,0.3-0.5,0.4c-0.1,0.1-0.2,0.2-0.3,0.2l0,0l0,0c0,0,0,0,0,0l0,0l0,0l-0.1,0.1c0,0-0.1,0.1-0.1,0.1
		c-0.1,0.1-0.2,0.2-0.3,0.3c0,0.1-0.1,0.1-0.1,0.1c0,0-0.1,0.1-0.1,0.1c-0.2,0.2-0.3,0.4-0.5,0.6c-0.3,0.4-0.6,0.8-0.8,1.2l-0.1,0.1
		l-0.1,0.1l-0.2,0.3c-0.1,0.2-0.3,0.4-0.4,0.5c-0.3,0.4-0.6,0.7-0.9,1c-0.1,0.2-0.3,0.3-0.4,0.4c-0.2,0.1-0.3,0.3-0.4,0.4
		c-0.3,0.3-0.6,0.5-0.9,0.6c-0.1,0.1-0.3,0.2-0.4,0.2c-0.1,0.1-0.3,0.1-0.4,0.2c-0.1,0.1-0.2,0.1-0.3,0.2c-0.1,0-0.2,0.1-0.3,0.1
		c-0.2,0.1-0.3,0.1-0.4,0.1c0,0,0,0-0.1,0c0,0,0,0,0,0c0,0,0,0,0,0c0,0,0,0,0,0c0,0,0,0.1,0,0.1c0,0,0,0,0,0c0,0,0,0,0,0
		c0,0,0,0,0,0.1c0,0.1,0,0.1,0,0.1l0.3,1c0,0,0,0,0,0.1c0,0,0,0,0,0c0,0,0,0,0,0c0,0,0,0,0,0c0,0,0,0.1,0,0.1c0,0,0,0,0,0
		c0,0,0,0,0,0c0,0,0,0,0,0c0,0,0.1,0,0.1,0c0.1,0,0.3-0.1,0.5-0.2c0.1,0,0.2-0.1,0.4-0.1c0.1-0.1,0.3-0.1,0.4-0.2
		c0.1-0.1,0.3-0.2,0.5-0.2c0.2-0.1,0.3-0.2,0.5-0.3c0.3-0.2,0.7-0.5,1-0.8c0.2-0.1,0.3-0.3,0.5-0.5c0.2-0.2,0.3-0.3,0.5-0.5
		c0.3-0.4,0.6-0.7,0.9-1.1c0.2-0.2,0.3-0.4,0.4-0.6l0.2-0.3l0.1-0.2l0.1-0.2c0.3-0.4,0.5-0.8,0.8-1.2c0.1-0.2,0.2-0.4,0.4-0.5
		c0,0,0.1-0.1,0.1-0.1l0.1-0.1c0.1-0.1,0.1-0.1,0.2-0.2c0.1-0.1,0.1-0.2,0.2-0.2c0.1-0.1,0.1-0.1,0.2-0.2c0.1-0.1,0.3-0.3,0.4-0.4
		c0.3-0.3,0.6-0.5,0.9-0.7c0.3-0.2,0.6-0.4,0.8-0.6c0.1-0.1,0.3-0.2,0.4-0.3c0.3,0.3,0.7,0.6,1.1,0.8c-0.1,0.1-0.1,0.1-0.2,0.2
		c-0.2,0.2-0.4,0.5-0.7,0.8c-0.2,0.3-0.5,0.6-0.7,1c-0.1,0.2-0.3,0.4-0.4,0.6c-0.1,0.1-0.1,0.2-0.2,0.3l0,0l0,0c0,0,0,0,0,0l0,0l0,0
		l0,0.1c0,0.1,0,0.1-0.1,0.2c0,0.1-0.1,0.2-0.2,0.3c0,0.1-0.1,0.1-0.1,0.2c0,0.1,0,0.1-0.1,0.2c-0.1,0.2-0.2,0.5-0.2,0.7
		c-0.1,0.5-0.2,1-0.4,1.4l0,0.2l0,0.2l-0.1,0.3c-0.1,0.2-0.1,0.4-0.2,0.6c-0.1,0.4-0.3,0.8-0.5,1.2c-0.1,0.2-0.2,0.4-0.3,0.6
		c-0.1,0.2-0.2,0.4-0.3,0.5c-0.2,0.3-0.4,0.6-0.6,0.9c-0.1,0.1-0.2,0.3-0.3,0.4c-0.1,0.1-0.2,0.2-0.3,0.3c-0.1,0.1-0.2,0.2-0.3,0.3
		c-0.1,0.1-0.2,0.1-0.2,0.2c-0.1,0.1-0.3,0.2-0.3,0.3c0,0,0,0-0.1,0c0,0,0,0,0,0c0,0,0,0,0,0c0,0,0,0,0,0c0,0,0,0.1,0,0.1
		c0,0,0,0,0,0c0,0,0,0,0,0c0,0,0,0,0,0c0,0.1,0,0.1,0,0.1l0.6,0.8c0,0,0,0,0.1,0.1c0,0,0,0,0,0c0,0,0,0,0,0c0,0,0,0,0,0
		c0,0,0,0,0.1,0.1c0,0,0,0,0,0c0,0,0,0,0,0c0,0,0,0,0,0c0,0,0,0,0.1-0.1c0.1-0.1,0.3-0.2,0.4-0.3c0.1-0.1,0.2-0.2,0.3-0.3
		c0.1-0.1,0.2-0.2,0.3-0.3c0.1-0.1,0.2-0.3,0.3-0.4c0.1-0.1,0.2-0.3,0.4-0.5c0.2-0.3,0.5-0.7,0.7-1.1c0.1-0.2,0.2-0.4,0.3-0.6
		c0.1-0.2,0.2-0.4,0.3-0.7c0.2-0.4,0.3-0.9,0.5-1.4c0.1-0.2,0.1-0.5,0.2-0.7l0.1-0.4l0-0.2l0-0.2c0.1-0.5,0.2-1,0.3-1.4
		c0.1-0.2,0.1-0.4,0.2-0.6c0-0.1,0-0.1,0-0.2l0-0.1c0-0.1,0.1-0.2,0.1-0.3c0-0.1,0.1-0.2,0.1-0.3c0-0.1,0.1-0.2,0.1-0.3
		c0.1-0.2,0.2-0.4,0.3-0.5c0.2-0.3,0.4-0.7,0.6-0.9s0.4-0.6,0.6-0.8c0.1-0.1,0.2-0.3,0.3-0.4c0.4,0.2,0.8,0.3,1.3,0.4
		c0,0.1-0.1,0.1-0.1,0.2c-0.1,0.3-0.2,0.6-0.4,1c-0.1,0.4-0.2,0.7-0.4,1.2c0,0.2-0.1,0.4-0.1,0.7c0,0.1,0,0.2-0.1,0.4l0,0l0,0
		c0,0,0,0,0,0l0,0l0,0l0,0.1c0,0.1,0,0.1,0,0.2c0,0.1,0,0.2,0,0.4c0,0.1,0,0.1,0,0.2c0,0.1,0,0.1,0,0.2c0,0.3,0,0.5,0,0.8
		c0,0.5,0.1,1,0.1,1.5l0,0.2l0,0.2l0,0.4c0,0.2,0,0.5,0,0.7c0,0.5,0,0.9,0,1.3c0,0.2,0,0.4-0.1,0.6c0,0.2-0.1,0.4-0.1,0.6
		c-0.1,0.4-0.1,0.7-0.2,1c-0.1,0.2-0.1,0.3-0.1,0.4c-0.1,0.1-0.1,0.3-0.2,0.4c-0.1,0.1-0.1,0.2-0.2,0.3c-0.1,0.1-0.1,0.2-0.2,0.3
		c-0.1,0.2-0.2,0.3-0.2,0.4c0,0,0,0,0,0.1c0,0,0,0,0,0c0,0,0,0,0,0c0,0,0,0,0,0c0,0,0,0,0.1,0.1c0,0,0,0,0,0c0,0,0,0,0,0
		c0,0,0,0,0,0c0,0,0.1,0.1,0.1,0.1l0.8,0.6c0,0,0,0,0.1,0c0,0,0,0,0,0c0,0,0,0,0,0c0,0,0,0,0,0c0,0,0.1,0,0.1,0c0,0,0,0,0,0
		c0,0,0,0,0,0c0,0,0,0,0,0c0,0,0,0,0-0.1c0.1-0.1,0.2-0.3,0.3-0.5c0.1-0.1,0.1-0.2,0.2-0.3c0.1-0.1,0.1-0.3,0.2-0.4
		c0.1-0.2,0.1-0.3,0.2-0.5c0.1-0.2,0.1-0.4,0.2-0.5c0.1-0.4,0.2-0.8,0.3-1.2c0-0.2,0.1-0.5,0.1-0.7c0-0.2,0-0.5,0-0.7
		c0-0.5,0-1,0-1.5c0-0.2,0-0.5-0.1-0.8l0-0.4l0-0.2l0-0.2c-0.1-0.5-0.1-1-0.2-1.4c0-0.2-0.1-0.4-0.1-0.7c0-0.1,0-0.1,0-0.2l0-0.1
		c0-0.1,0-0.2,0-0.3c0-0.1,0-0.2,0-0.3c0-0.1,0-0.2,0-0.3c0-0.2,0.1-0.4,0.1-0.6c0.1-0.4,0.1-0.8,0.2-1.1c0.1-0.3,0.2-0.7,0.3-0.9
		c0.1-0.2,0.1-0.3,0.1-0.5c0.1,0,0.2,0,0.3,0c0.4,0,0.7,0,1.1-0.1c0,0.1,0,0.2,0,0.2c0,0.3,0,0.6,0,1c0,0.4,0,0.8,0.1,1.2
		c0,0.2,0,0.4,0.1,0.7c0,0.1,0,0.2,0.1,0.3l0,0v0c0,0,0,0,0,0l0,0l0,0l0,0.1c0,0.1,0,0.1,0,0.2c0,0.1,0.1,0.2,0.1,0.4
		c0,0.1,0,0.1,0.1,0.2c0,0.1,0,0.1,0.1,0.2c0.1,0.2,0.2,0.5,0.3,0.7c0.2,0.5,0.4,0.9,0.6,1.3l0.1,0.2l0.1,0.2l0.1,0.3
		c0.1,0.2,0.2,0.4,0.3,0.6c0.2,0.4,0.3,0.8,0.4,1.2c0.1,0.2,0.1,0.4,0.2,0.6c0,0.2,0.1,0.4,0.1,0.6c0.1,0.4,0.1,0.7,0.1,1.1
		c0,0.2,0,0.3,0,0.5c0,0.1,0,0.3,0,0.4c0,0.1,0,0.3,0,0.4c0,0.1,0,0.2,0,0.3c0,0.2-0.1,0.3-0.1,0.4c0,0,0,0,0,0.1c0,0,0,0,0,0
		c0,0,0,0,0,0c0,0,0,0,0,0c0,0,0.1,0,0.1,0c0,0,0,0,0,0c0,0,0,0,0,0c0,0,0,0,0.1,0c0.1,0,0.1,0,0.1,0l1,0.3c0,0,0,0,0.1,0
		c0,0,0,0,0.1,0c0,0,0,0,0,0c0,0,0,0,0,0c0,0,0.1,0,0.1,0c0,0,0,0,0,0c0,0,0,0,0,0c0,0,0,0,0,0c0,0,0-0.1,0-0.1
		c0-0.1,0.1-0.3,0.1-0.5c0-0.1,0-0.2,0.1-0.4c0-0.1,0-0.3,0-0.5c0-0.2,0-0.3,0-0.5c0-0.2,0-0.4,0-0.6c0-0.4-0.1-0.8-0.2-1.3
		c0-0.2-0.1-0.4-0.2-0.7c-0.1-0.2-0.1-0.5-0.2-0.7c-0.1-0.5-0.3-0.9-0.5-1.4c-0.1-0.2-0.2-0.5-0.3-0.7l-0.2-0.3l-0.1-0.2l-0.1-0.2
		c-0.2-0.4-0.5-0.9-0.7-1.3c-0.1-0.2-0.2-0.4-0.3-0.6c0,0,0-0.1-0.1-0.1l-0.1-0.1c0-0.1-0.1-0.2-0.1-0.3c0-0.1-0.1-0.2-0.1-0.3
		c0-0.1,0-0.2-0.1-0.3c-0.1-0.2-0.1-0.4-0.1-0.6c-0.1-0.4-0.1-0.8-0.2-1.1c0-0.4-0.1-0.7-0.1-1c0-0.2,0-0.3,0-0.5
		c0.4-0.1,0.9-0.3,1.2-0.5c0,0.1,0,0.1,0.1,0.2c0.1,0.3,0.2,0.6,0.3,1c0.1,0.3,0.3,0.7,0.5,1.1c0.1,0.2,0.2,0.4,0.3,0.6
		c0.1,0.1,0.1,0.2,0.2,0.3l0,0l0,0c0,0,0,0,0,0l0,0l0,0l0,0.1c0,0,0.1,0.1,0.1,0.1c0.1,0.1,0.1,0.2,0.2,0.3c0,0.1,0.1,0.1,0.1,0.2
		c0,0.1,0.1,0.1,0.1,0.1c0.2,0.2,0.3,0.4,0.5,0.6c0.4,0.4,0.7,0.7,1,1l0.1,0.1l0.1,0.1l0.3,0.3c0.2,0.2,0.3,0.3,0.5,0.5
		c0.3,0.3,0.6,0.7,0.8,1c0.1,0.2,0.2,0.3,0.4,0.5c0.1,0.2,0.2,0.3,0.3,0.5c0.2,0.3,0.3,0.7,0.5,0.9c0.1,0.2,0.1,0.3,0.2,0.4
		c0,0.1,0.1,0.3,0.1,0.4c0,0.1,0.1,0.2,0.1,0.4c0,0.1,0,0.2,0.1,0.3c0,0.2,0,0.3,0.1,0.4c0,0,0,0,0,0.1c0,0,0,0,0,0c0,0,0,0,0,0
		c0,0,0,0,0,0c0,0,0.1,0,0.1,0c0,0,0,0,0,0c0,0,0,0,0,0c0,0,0,0,0.1,0c0.1,0,0.1,0,0.1,0l1-0.1c0,0,0,0,0.1,0c0,0,0,0,0.1,0
		c0,0,0,0,0,0c0,0,0,0,0,0c0,0,0.1,0,0.1,0c0,0,0,0,0,0c0,0,0,0,0,0c0,0,0,0,0,0c0,0,0-0.1,0-0.1c0-0.1,0-0.3-0.1-0.5
		c0-0.1,0-0.2-0.1-0.4c0-0.1-0.1-0.3-0.1-0.4c0-0.2-0.1-0.3-0.2-0.5c-0.1-0.2-0.1-0.3-0.2-0.5c-0.2-0.4-0.4-0.8-0.6-1.1
		c-0.1-0.2-0.2-0.4-0.4-0.6c-0.1-0.2-0.3-0.4-0.4-0.6c-0.3-0.4-0.6-0.8-1-1.1c-0.2-0.2-0.4-0.4-0.5-0.5l-0.3-0.3l-0.1-0.1l-0.1-0.1
		c-0.4-0.3-0.7-0.7-1.1-1c-0.2-0.2-0.3-0.3-0.5-0.5c0,0-0.1-0.1-0.1-0.1l-0.1-0.1c-0.1-0.1-0.1-0.1-0.2-0.2
		c-0.1-0.1-0.1-0.2-0.2-0.2c-0.1-0.1-0.1-0.2-0.2-0.3c-0.1-0.2-0.2-0.3-0.3-0.5c-0.2-0.3-0.4-0.7-0.5-1c-0.2-0.3-0.3-0.6-0.4-0.9
		c-0.1-0.2-0.1-0.3-0.2-0.4c0.4-0.3,0.7-0.6,1-0.9c0,0.1,0.1,0.1,0.1,0.2c0.2,0.2,0.4,0.5,0.6,0.8c0.2,0.3,0.5,0.6,0.8,0.9
		c0.2,0.2,0.3,0.3,0.5,0.5c0.1,0.1,0.2,0.2,0.3,0.2l0,0l0,0c0,0,0,0,0,0l0,0l0,0l0.1,0c0,0,0.1,0.1,0.1,0.1c0.1,0.1,0.2,0.1,0.3,0.2
		c0.1,0,0.1,0.1,0.2,0.1c0.1,0,0.1,0.1,0.2,0.1c0.2,0.1,0.4,0.2,0.7,0.4c0.4,0.2,0.9,0.4,1.3,0.6l0.2,0.1l0.2,0.1l0.3,0.2
		c0.2,0.1,0.4,0.2,0.6,0.3c0.4,0.2,0.8,0.4,1.1,0.7c0.2,0.1,0.3,0.2,0.5,0.4c0.2,0.1,0.3,0.2,0.5,0.4c0.3,0.2,0.5,0.5,0.8,0.7
		c0.1,0.1,0.2,0.2,0.3,0.4c0.1,0.1,0.2,0.2,0.3,0.3c0.1,0.1,0.1,0.2,0.2,0.3c0.1,0.1,0.1,0.2,0.2,0.3c0.1,0.2,0.2,0.3,0.2,0.4
		c0,0,0,0,0,0.1c0,0,0,0,0,0c0,0,0,0,0,0c0,0,0,0,0,0c0,0,0.1,0,0.1,0c0,0,0,0,0,0c0,0,0,0,0,0c0,0,0,0,0.1,0c0.1,0,0.1,0,0.1,0
		l0.9-0.4c0,0,0,0,0.1-0.1c0,0,0,0,0,0c0,0,0,0,0,0c0,0,0,0,0,0c0,0,0,0,0.1-0.1c0,0,0,0,0,0c0,0,0,0,0,0c0,0,0,0,0,0c0,0,0,0,0-0.1
		c-0.1-0.1-0.1-0.3-0.3-0.5c-0.1-0.1-0.1-0.2-0.2-0.3c-0.1-0.1-0.2-0.2-0.3-0.4c-0.1-0.1-0.2-0.3-0.3-0.4c-0.1-0.1-0.2-0.3-0.4-0.4
		c-0.3-0.3-0.6-0.6-0.9-0.9c-0.2-0.1-0.4-0.3-0.5-0.4c-0.2-0.1-0.4-0.3-0.6-0.4c-0.4-0.3-0.8-0.5-1.3-0.7c-0.2-0.1-0.5-0.2-0.7-0.3
		l-0.3-0.1L65,36.6l-0.2-0.1c-0.5-0.2-0.9-0.4-1.3-0.5c-0.2-0.1-0.4-0.2-0.6-0.3c0,0-0.1,0-0.1-0.1l-0.1-0.1c-0.1,0-0.2-0.1-0.3-0.2
		c-0.1-0.1-0.2-0.1-0.3-0.2c-0.1-0.1-0.2-0.1-0.2-0.2c-0.2-0.1-0.3-0.2-0.5-0.4c-0.3-0.2-0.6-0.5-0.8-0.8c-0.3-0.2-0.5-0.5-0.7-0.7
		c-0.1-0.1-0.2-0.2-0.3-0.4c0.2-0.4,0.4-0.8,0.6-1.2c0.1,0,0.1,0.1,0.2,0.1c0.3,0.2,0.5,0.3,0.9,0.5c0.3,0.2,0.7,0.4,1.1,0.6
		c0.2,0.1,0.4,0.2,0.6,0.3c0.1,0,0.2,0.1,0.3,0.1l0,0l0,0c0,0,0,0,0,0l0,0l0,0l0.1,0c0.1,0,0.1,0,0.2,0c0.1,0,0.2,0.1,0.4,0.1
		c0.1,0,0.1,0,0.2,0c0.1,0,0.1,0,0.2,0c0.3,0,0.5,0.1,0.7,0.1c0.5,0,1,0.1,1.5,0.1l0.2,0l0.2,0l0.4,0c0.2,0,0.4,0.1,0.7,0.1
		c0.5,0.1,0.9,0.1,1.3,0.3c0.2,0,0.4,0.1,0.6,0.2c0.2,0.1,0.4,0.1,0.6,0.2c0.4,0.1,0.7,0.3,1,0.4c0.1,0.1,0.3,0.2,0.4,0.2
		c0.1,0.1,0.2,0.1,0.4,0.2c0.1,0.1,0.2,0.1,0.3,0.2c0.1,0.1,0.2,0.1,0.2,0.2c0.1,0.1,0.2,0.2,0.3,0.3c0,0,0,0,0,0c0,0,0,0,0,0
		c0,0,0,0,0,0c0,0,0,0,0,0c0,0,0.1,0,0.1-0.1c0,0,0,0,0,0c0,0,0,0,0,0c0,0,0,0,0,0c0,0,0.1-0.1,0.1-0.1l0.7-0.7c0,0,0,0,0.1-0.1
		c0,0,0,0,0,0c0,0,0,0,0,0c0,0,0,0,0,0c0,0,0,0,0.1-0.1c0,0,0,0,0,0c0,0,0,0,0,0c0,0,0,0,0,0c0,0,0,0-0.1-0.1
		c-0.1-0.1-0.2-0.2-0.4-0.4c-0.1-0.1-0.2-0.2-0.3-0.2c-0.1-0.1-0.2-0.2-0.4-0.3c-0.1-0.1-0.3-0.2-0.4-0.3c-0.2-0.1-0.3-0.2-0.5-0.3
		c-0.4-0.2-0.8-0.3-1.2-0.5c-0.2-0.1-0.4-0.1-0.7-0.2c-0.2-0.1-0.5-0.1-0.7-0.2c-0.5-0.1-1-0.2-1.5-0.2c-0.2,0-0.5-0.1-0.8-0.1
		l-0.4,0l-0.2,0l-0.2,0c-0.5,0-1,0-1.4-0.1c-0.2,0-0.4,0-0.7-0.1c-0.1,0-0.1,0-0.2,0l-0.1,0c-0.1,0-0.2,0-0.3-0.1
		c-0.1,0-0.2,0-0.3-0.1c-0.1,0-0.2-0.1-0.3-0.1c-0.2-0.1-0.4-0.1-0.6-0.2c-0.4-0.1-0.7-0.3-1-0.4c-0.3-0.1-0.6-0.3-0.9-0.4
		c-0.2-0.1-0.3-0.1-0.4-0.2c0.1-0.4,0.1-0.9,0.2-1.3c0.1,0,0.2,0,0.2,0c0.3,0.1,0.6,0.1,1,0.2c0.4,0.1,0.8,0.1,1.2,0.1
		c0.2,0,0.4,0,0.7,0c0.1,0,0.2,0,0.4,0h0h0c0,0,0,0,0,0h0l0,0l0.1,0c0.1,0,0.1,0,0.2,0c0.1,0,0.2,0,0.4,0c0.1,0,0.1,0,0.2,0
		c0.1,0,0.1,0,0.2,0c0.3,0,0.5-0.1,0.7-0.2c0.5-0.1,1-0.3,1.4-0.4l0.2,0l0.2,0l0.4-0.1c0.2,0,0.4-0.1,0.7-0.1
		c0.4-0.1,0.9-0.2,1.3-0.2c0.2,0,0.4,0,0.6-0.1c0.2,0,0.4,0,0.6,0c0.4,0,0.7,0,1.1,0.1c0.2,0,0.3,0,0.5,0.1c0.1,0,0.3,0.1,0.4,0.1
		c0.1,0,0.2,0.1,0.4,0.1c0.1,0,0.2,0.1,0.3,0.1c0.2,0.1,0.3,0.1,0.4,0.2c0,0,0,0,0.1,0c0,0,0,0,0,0c0,0,0,0,0,0c0,0,0,0,0,0
		c0,0,0-0.1,0.1-0.1c0,0,0,0,0,0c0,0,0,0,0,0c0,0,0,0,0,0c0-0.1,0-0.1,0-0.1l0.4-0.9c0,0,0,0,0-0.1c0,0,0,0,0-0.1c0,0,0,0,0,0
		c0,0,0,0,0,0C75.1,27.5,75.1,27.4,75.1,27.3C75.1,27.4,75.1,27.4,75.1,27.3C75.1,27.4,75.1,27.4,75.1,27.3z"/>
	<circle fill="none" stroke="#4489C8" stroke-width="1.7773" stroke-miterlimit="10" cx="53.4" cy="29" r="28.1"/>
</g>
</svg>
