<?xml version="1.0" encoding="utf-8"?>
<!-- Generator: Adobe Illustrator 18.0.0, SVG Export Plug-In . SVG Version: 6.00 Build 0)  -->
<!DOCTYPE svg PUBLIC "-//W3C//DTD SVG 1.1//EN" "http://www.w3.org/Graphics/SVG/1.1/DTD/svg11.dtd">
<svg version="1.1" id="Layer_1" xmlns="http://www.w3.org/2000/svg" xmlns:xlink="http://www.w3.org/1999/xlink" x="0px" y="0px"
	 width="18px" height="21px" viewBox="0 0 18 21" enable-background="new 0 0 18 21" xml:space="preserve">
<g>
	<linearGradient id="SVGID_1_" gradientUnits="userSpaceOnUse" x1="2.688550e-02" y1="10.5" x2="17.9731" y2="10.5">
		<stop  offset="0" style="stop-color:#4489C8"/>
		<stop  offset="1" style="stop-color:#0960AC"/>
	</linearGradient>
	<path fill="url(#SVGID_1_)" d="M16.3,13l-8.2-1.9C7.9,11,7.6,11,7.3,11c0-0.3-0.1-0.7-0.2-1.1L4,1.6C3.7,0.7,3.3,0,3.2,0
		c-0.1,0,0,0.9,0.3,1.8l2.2,8.6c0.1,0.4,0.3,0.7,0.5,1C6,11.6,5.8,11.8,5.7,12l-4.8,7.3C0.3,20.2,0,20.9,0,21
		c0.1,0.1,0.7-0.5,1.3-1.2L6.8,13c0.1-0.2,0.3-0.4,0.4-0.6c0.2,0.1,0.4,0.1,0.7,0.2l8.3,1c0.9,0.1,1.7,0.1,1.7,0
		C18,13.5,17.3,13.2,16.3,13z"/>
	<ellipse fill="#F15D5F" cx="6.9" cy="11.6" rx="0.7" ry="0.8"/>
</g>
</svg>
