<?xml version="1.0" encoding="utf-8"?>
<!-- Generator: Adobe Illustrator 18.0.0, SVG Export Plug-In . SVG Version: 6.00 Build 0)  -->
<!DOCTYPE svg PUBLIC "-//W3C//DTD SVG 1.1//EN" "http://www.w3.org/Graphics/SVG/1.1/DTD/svg11.dtd">
<svg version="1.1" id="Layer_1" xmlns="http://www.w3.org/2000/svg" xmlns:xlink="http://www.w3.org/1999/xlink" x="0px" y="0px"
	 width="31px" height="52px" viewBox="0 0 31 52" enable-background="new 0 0 31 52" xml:space="preserve">
<g>
	<g>
		<g>
			<path fill="#4489C8" d="M26.4,51.2c-2.3,0-4.1-1.9-4.1-4.1c0-2.3,1.9-4.1,4.1-4.1s4.1,1.9,4.1,4.1C30.5,49.3,28.6,51.2,26.4,51.2
				z M26.4,44.4c-1.5,0-2.7,1.2-2.7,2.7c0,1.5,1.2,2.7,2.7,2.7c1.5,0,2.7-1.2,2.7-2.7C29,45.6,27.8,44.4,26.4,44.4z"/>
		</g>
	</g>
	<g>
		<g>
			<path fill="#4489C8" d="M2.1,0.8c0,6.6,2.9,16,6.4,20.9l16.3,22.7l-1.3,1L7.2,22.7C3.5,17.5,0.5,7.7,0.5,0.8H2.1z"/>
		</g>
	</g>
</g>
</svg>
