<?xml version="1.0" encoding="utf-8"?>
<!-- Generator: Adobe Illustrator 18.0.0, SVG Export Plug-In . SVG Version: 6.00 Build 0)  -->
<!DOCTYPE svg PUBLIC "-//W3C//DTD SVG 1.1//EN" "http://www.w3.org/Graphics/SVG/1.1/DTD/svg11.dtd">
<svg version="1.1" id="Layer_1" xmlns="http://www.w3.org/2000/svg" xmlns:xlink="http://www.w3.org/1999/xlink" x="0px" y="0px"
	 width="174px" height="79px" viewBox="0 0 174 79" enable-background="new 0 0 174 79" xml:space="preserve">
<g>
	<g opacity="0.6">
		<g opacity="0.8">
			<path fill="#FFFFFF" d="M7.7,51.3c0,2.2-1.7,3.9-3.7,3.9c-2,0-3.7-1.8-3.7-3.9H7.7z"/>
			<path fill="#FFFFFF" d="M22.4,51.3c0,2.2-1.7,3.9-3.7,3.9c-2,0-3.7-1.8-3.7-3.9H22.4z"/>
			<path fill="#FFFFFF" d="M29.6,51.3c0,2.2-1.7,3.9-3.7,3.9c-2,0-3.7-1.8-3.7-3.9H29.6z"/>
			<path fill="#FFFFFF" d="M15,51.3c0,2.2-1.7,3.9-3.7,3.9c-2,0-3.7-1.8-3.7-3.9H15z"/>
		</g>
	</g>
	<g opacity="0.6">
		<g opacity="0.8">
			<path fill="#FFFFFF" d="M162.8,0.4c0,1.6-1.2,3-2.8,3c-1.5,0-2.8-1.3-2.8-3H162.8z"/>
			<path fill="#FFFFFF" d="M168.3,0.4c0,1.6-1.2,3-2.8,3c-1.5,0-2.8-1.3-2.8-3H168.3z"/>
			<path fill="#FFFFFF" d="M157.3,0.4c0,1.6-1.2,3-2.8,3c-1.5,0-2.8-1.3-2.8-3H157.3z"/>
		</g>
		<g opacity="0.8">
			<path fill="#FFFFFF" d="M173.7,0.4c0,1.6-1.2,3-2.8,3c-1.5,0-2.8-1.3-2.8-3H173.7z"/>
		</g>
	</g>
	<g opacity="0.6">
		<g opacity="0.8">
			<path fill="#FFFFFF" d="M116.4,12.9c0,1.8-1.3,3.2-3,3.2c-1.7,0-3-1.4-3-3.2H116.4z"/>
			<path fill="#FFFFFF" d="M122.2,12.9c0,1.8-1.3,3.2-3,3.2c-1.7,0-3-1.4-3-3.2H122.2z"/>
		</g>
	</g>
	<g opacity="0.6">
		<g opacity="0.8">
			<path fill="#FFFFFF" d="M134.5,74.2c0,2.4-1.8,4.3-4,4.3c-2.2,0-4-1.9-4-4.3H134.5z"/>
		</g>
		<g opacity="0.8">
			<path fill="#FFFFFF" d="M142.4,74.2c0,2.4-1.8,4.3-4,4.3c-2.2,0-4-1.9-4-4.3H142.4z"/>
		</g>
	</g>
	<g opacity="0.6">
		<g opacity="0.8">
			<path fill="#FFFFFF" d="M110.5,51.1c0,2.2-1.7,3.9-3.7,3.9c-2,0-3.7-1.8-3.7-3.9H110.5z"/>
			<path fill="#FFFFFF" d="M125.2,51.1c0,2.2-1.7,3.9-3.7,3.9c-2,0-3.7-1.8-3.7-3.9H125.2z"/>
			<path fill="#FFFFFF" d="M117.9,51.1c0,2.2-1.7,3.9-3.7,3.9c-2,0-3.7-1.8-3.7-3.9H117.9z"/>
		</g>
	</g>
	<g opacity="0.6">
		<g opacity="0.8">
			<path fill="#FFFFFF" d="M74.2,27.6c0,2.4-1.8,4.3-4,4.3c-2.2,0-4-1.9-4-4.3H74.2z"/>
		</g>
		<g opacity="0.8">
			<path fill="#FFFFFF" d="M82.1,27.6c0,2.4-1.8,4.3-4,4.3c-2.2,0-4-1.9-4-4.3H82.1z"/>
		</g>
	</g>
</g>
</svg>
