<?xml version="1.0" encoding="utf-8"?>
<!-- Generator: Adobe Illustrator 18.0.0, SVG Export Plug-In . SVG Version: 6.00 Build 0)  -->
<!DOCTYPE svg PUBLIC "-//W3C//DTD SVG 1.1//EN" "http://www.w3.org/Graphics/SVG/1.1/DTD/svg11.dtd">
<svg version="1.1" id="Layer_1" xmlns="http://www.w3.org/2000/svg" xmlns:xlink="http://www.w3.org/1999/xlink" x="0px" y="0px"
	 width="26px" height="29px" viewBox="0 0 26 29" enable-background="new 0 0 26 29" xml:space="preserve">
<g>
	
		<linearGradient id="SVGID_1_" gradientUnits="userSpaceOnUse" x1="0.367" y1="15.5005" x2="25.6118" y2="15.5005" gradientTransform="matrix(1 0 0 -1 0 30)">
		<stop  offset="0" style="stop-color:#4489C8"/>
		<stop  offset="1" style="stop-color:#0960AC"/>
	</linearGradient>
	<path fill="url(#SVGID_1_)" d="M24.7,2.3c0.6-1,1.1-1.9,0.9-2c-0.1-0.1-0.8,0.6-1.5,1.5l-7.9,10c-0.2,0.2-0.3,0.5-0.4,0.7
		c-0.3-0.1-0.7-0.3-1-0.3L2.5,10.9c-1.1-0.1-2.1-0.1-2.1,0.1c0,0.2,0.9,0.5,2,0.7l12,2.8c0.4,0.1,0.8,0.1,1.1,0.1
		c0.1,0.2,0.1,0.5,0.3,0.7l5.6,11.6c0.5,1.1,1.1,1.9,1.2,1.8s-0.1-1-0.5-2.2l-4.4-12.2c-0.1-0.2-0.2-0.4-0.3-0.6
		c0.2-0.2,0.3-0.3,0.4-0.6L24.7,2.3z"/>
	<ellipse fill="#F15D5F" cx="16.3" cy="13.5" rx="1.1" ry="1.2"/>
</g>
</svg>
