<?xml version="1.0" encoding="utf-8"?>
<!-- Generator: Adobe Illustrator 18.0.0, SVG Export Plug-In . SVG Version: 6.00 Build 0)  -->
<!DOCTYPE svg PUBLIC "-//W3C//DTD SVG 1.1//EN" "http://www.w3.org/Graphics/SVG/1.1/DTD/svg11.dtd">
<svg version="1.1" id="Layer_1" xmlns="http://www.w3.org/2000/svg" xmlns:xlink="http://www.w3.org/1999/xlink" x="0px" y="0px"
	 width="26px" height="32px" viewBox="0 0 26 32" enable-background="new 0 0 26 32" xml:space="preserve">
<g>
	<linearGradient id="SVGID_1_" gradientUnits="userSpaceOnUse" x1="0.2742" y1="16" x2="25.7258" y2="16">
		<stop  offset="0" style="stop-color:#4489C8"/>
		<stop  offset="1" style="stop-color:#0960AC"/>
	</linearGradient>
	<path fill="url(#SVGID_1_)" d="M23.6,18l-12.8-2c-0.3,0-0.6-0.1-0.8,0c0-0.4-0.1-0.8-0.3-1.2L4,2.5c-0.5-1.2-1.1-2-1.2-2
		C2.7,0.6,2.9,1.6,3.3,2.8l4.3,12.9c0.1,0.4,0.4,0.8,0.6,1.1c-0.2,0.2-0.3,0.4-0.4,0.6L1.2,29.3c-0.6,1.1-1,2.1-0.9,2.2
		c0.1,0.1,0.8-0.7,1.5-1.7l7.8-11c0.1-0.2,0.2-0.4,0.3-0.6c0.2,0.1,0.5,0.1,0.7,0.1l12.9,0.5c1.2,0,2.2-0.1,2.2-0.2
		C25.7,18.5,24.8,18.2,23.6,18z"/>
	<ellipse fill="#F15D5F" cx="9.4" cy="17.1" rx="1.2" ry="1.2"/>
</g>
</svg>
